<?xml version="1.0" encoding="utf-8"?>
<!-- Generator: Adobe Illustrator 27.0.0, SVG Export Plug-In . SVG Version: 6.00 Build 0)  -->
<svg version="1.1" id="Layer_1" xmlns="http://www.w3.org/2000/svg" xmlns:xlink="http://www.w3.org/1999/xlink" x="0px" y="0px"
	 viewBox="0 0 383.9 382.6" style="enable-background:new 0 0 383.9 382.6;" xml:space="preserve">
<style type="text/css">
	.st0{fill:#FFFFFF;}
</style>
<g>
	<path class="st0" d="M284.6,116.5c2.4-6.4,3.2-12.6,1.2-18.9c-0.5-1.5,0.5-1.6,1.6-1.6c12.4,0.1,24.8-0.3,37.1,0.4
		c10.7,0.6,19.3,10.6,19.6,21.6c0.2,8.6,0.1,17.2,0.1,25.8c0,52.4,0,104.8,0.1,157.1c0,3.5-1,4.2-4.3,4.2
		c-95.2-0.1-190.4-0.1-285.6,0c-3.3,0-4.3-0.6-4.3-4.2c0.1-60.2,0.1-120.5,0.1-180.7c0-11.9,6.3-20.5,17-23.5
		c2.2-0.6,4.4-0.8,6.7-0.8c30.5,0,61,0,91.4,0c0.6,0,1.2,0.1,2.4,0.2c-4.9,6.8-9.5,13.2-14.1,19.6c-1,1.4-2.6,0.7-3.9,0.7
		c-24.6,0-49.2,0-73.8,0c-5.1,0-5.2,0.2-5.2,5.3c0,54.1,0,108.2-0.1,162.4c0,2.9,0.7,3.7,3.7,3.7c82-0.1,163.9-0.1,245.9,0
		c2.8,0,3.5-0.6,3.5-3.5c-0.1-54.4-0.1-108.7-0.1-163.1c0-4.5-0.3-4.8-5-4.8C307.4,116.5,296.2,116.5,284.6,116.5z"/>
	<path class="st0" d="M342.2,342.5c6,0,11.1,0.1,16.2,0c2.6,0,5.1,0.4,5,3.5c0,3.2-2.6,3.4-5.2,3.4c-68.4,0-136.9,0-205.3,0
		c-30,0-59.9,0-89.9,0c-3,0-6.2,0.5-6.9-3.8c-0.1-0.6-1.2-1.1-1.9-1.6c-10.5-7.3-14.6-17.5-14.2-30c0.1-1.6,0.5-2.3,2.1-2.2
		c0.7,0.1,1.5,0,2.2,0c101.8,0,203.5,0,305.3-0.1c3.7,0,4.5,0.9,4.4,4.5C354.1,326.5,350.5,335.1,342.2,342.5z"/>
	<path class="st0" d="M204.6,57.1c21.6,39.3,43,78.3,64.7,117.8c-6.8,0.4-13.2,0.9-19.6,1.3c-22.2,1.3-44.4,2.5-66.6,3.7
		c-1.6,0.1-2.4-0.3-3.2-1.8c-8.7-16-17.4-31.9-26.2-47.8c-0.8-1.4-0.5-2.2,0.3-3.3C170.8,103.9,187.5,80.7,204.6,57.1z"/>
	<path class="st0" d="M174.1,183c0,2.9-1.2,4.4-3.1,5.4c-10.4,5.7-20.8,11.4-31.1,17c-2.4,1.3-4.8,1.1-6.4-1
		c-1.4-1.7-2.4-1.1-3.8-0.3c-1.3,0.8-2.6,1.5-3.9,2.1c-3.9,1.8-7.6,0.9-9.7-2.8c-6.1-10.8-12.1-21.8-18-32.7c-2.1-3.9-0.9-7.6,3-9.9
		c1.2-0.7,2.4-1.3,3.6-1.9c1.5-0.7,2.6-1.3,1.8-3.6c-0.9-2.5,0.5-4.6,2.8-5.9c10.4-5.7,20.7-11.4,31.1-17c3.2-1.7,5.8-1,7.6,2.3
		c8.5,15.3,16.9,30.7,25.3,46.1C173.9,181.7,174,182.7,174.1,183z"/>
	<path class="st0" d="M297,173.1c0.1,4.7-3,8.3-8,9.6c-4.1,1.1-7.8-0.7-10.2-5c-7.1-12.8-14.2-25.7-21.2-38.6
		C241,109,224.4,78.8,207.8,48.6c-3.1-5.6-2.1-10.4,2.5-13.4c5.6-3.6,11-2.2,14.4,3.9c11,19.9,21.9,39.9,32.9,59.8
		c12.4,22.7,24.9,45.4,37.3,68C296,169,297.2,170.9,297,173.1z"/>
	<path class="st0" d="M200.5,249.7c-0.1,2.2-1,3.6-2.7,4.5c-6,3.3-12,6.6-18,9.8c-3.1,1.6-5.3,0.7-7.3-2.8c-8-14.6-16-29.2-24-43.8
		c-3.6-6.6-3.6-6.6,3.1-10.4c4.6-2.5,9.2-5,13.7-7.5c1.2-0.7,2-1.3,2.7,0.7c6.2,17.7,17.9,31.7,30.1,45.4
		C199.4,246.9,200.7,248.1,200.5,249.7z"/>
	<path class="st0" d="M275.5,117.3c-6-10.9-11.8-21.6-17.7-32.3c6.4-1.7,14.8,2.4,19,9C281.3,101.3,280.9,110.9,275.5,117.3z"/>
	<path class="st0" d="M33.3,342.5c3,0,6,0,9,0c2.2,0,3.6,1.2,3.6,3.4c0,2.2-1.3,3.4-3.5,3.4c-6.1,0-12.2,0-18.3,0
		c-2.2,0-3.6-1.2-3.6-3.4c0-2.1,1.4-3.4,3.6-3.5C27.1,342.4,30.2,342.5,33.3,342.5z"/>
</g>
</svg>
