<?xml version="1.0" encoding="utf-8"?>
<!-- Generator: Adobe Illustrator 27.0.0, SVG Export Plug-In . SVG Version: 6.00 Build 0)  -->
<svg version="1.1" id="Layer_1" xmlns="http://www.w3.org/2000/svg" xmlns:xlink="http://www.w3.org/1999/xlink" x="0px" y="0px"
	 viewBox="0 0 304 198.2" style="enable-background:new 0 0 304 198.2;" xml:space="preserve">
<style type="text/css">
	.st0{fill:#333333;}
</style>
<g>
	<g>
		<path class="st0" d="M5.2,150.1c9.1-6.4,15.9-15,24.1-22.8c27.3-26.4,54.2-53.3,81.5-79.7c2.3-1.8,3.6-4.6,5.9-6.4
			c1.8,0,3.6,0,5.5,0c2.7,3.2,1.8,6.8,1.8,10c0,15.9,0,32.3,0,48.3c0.9,0.5,1.4,0.5,2.3,0.9c20-20,39.6-39.6,59.6-59.6
			c1.8,0,3.6,0,5.5,0c0,36,0.5,71.9,0.5,107.9c0,3.6,0.5,8.2-4.6,7.7c-5-0.5-4.1-5-4.1-8.7c0-27.8,0-56,0-83.8
			c0-2.3,0.9-4.6-1.4-7.7c-16.8,16.8-33.7,33.2-50.5,49.6c-3.6,3.6-6.4,10.9-12.3,8.2c-5.9-2.3-3.2-9.6-3.2-14.6
			c-0.5-14.1,0-28.2-2.3-43.7c-2.3,2.7-4.1,5.5-6.8,7.7c-30.1,29.6-60.1,58.7-90.2,88.3c-3.2,3.2-5.9,6.4-10.5,2.7
			C5.2,153.7,5.2,151.9,5.2,150.1z"/>
		<path class="st0" d="M166,96.8c-19.6,19.6-37.8,37.3-55.6,54.6c-2.3,2.3-4.6,6.4-8.7,5c-5-1.8-3.2-6.4-3.2-10
			c0-15.9,0-31.4,0-47.4c-3.2-0.5-4.1,2.3-5.9,3.6c-17.3,16.8-34.6,33.7-51.5,50.5c-2.3,2.3-5,6.4-9.1,2.3c-3.2-3.6,0.5-5.9,2.7-8.2
			c20.9-20.5,41.4-41,62.4-61c1.8-1.8,3.6-4.6,6.8-3.2c3.6,1.4,3.2,4.6,3.2,7.7c0,16.4,0,33.2,0,52.8c8.2-8.2,14.1-14.6,20.9-20.9
			c11.8-11.8,24.1-23.7,36-35.5c2.3-1.8,4.1-5,7.7-3.6c4.1,1.4,3.2,5.5,3.2,8.7c0,19.1,0,38.2,0,56.9c0,3.6,0.9,8.2-4.1,8.2
			c-5.9,0-4.6-5-4.6-8.7C165.5,131.9,166,115.5,166,96.8z"/>
	</g>
	<g>
		<path class="st0" d="M269.2,40.8c20.9,9.1,30.5,23.7,24.6,41c-3.2,9.1-1.4,15,1.8,23.2c9.6,24.1-3.6,48.7-30.5,51.5
			c-17.3,1.8-35.1,0.5-52.8,0.5c-4.1,0-6.4-1.8-6.4-5.9c0.5-36.9-1.4-73.8,0.9-110.2C227.8,40.8,248.3,40.8,269.2,40.8z M214.6,98.6
			c0,14.1,0.5,28.7,0,42.8c0,5.9,1.8,6.8,7.3,6.8c12.7-0.5,25.5,0,38.2,0s22.3-5.5,27.8-16.4c5.5-10.9,4.1-21.4-4.1-31
			c-3.6-4.6-4.6-8.2-1.4-13.7c10.5-19.6,0-37.3-22.3-38.2c-13.2-0.5-26,0-39.2,0c-4.6,0-6.4,1.4-6.4,5.9
			C215.1,69.5,214.6,84,214.6,98.6z"/>
		<path class="st0" d="M246.9,99.1c5,0,9.6,0,14.6,0c11.4,0.5,20,8.2,20.5,18.7c0.9,11.8-6.4,21.4-18.2,22.3
			c-11.4,0.9-22.8,0.5-34.6,0.9c-4.6,0-6.4-2.3-6.4-6.8c0-9.6,0-19.1,0-28.7c0-4.6,1.8-6.4,6.4-6.4C235.6,99.1,241,99.1,246.9,99.1z
			 M248.3,131.9c3.2,0,6.8,0,10,0c9.6-0.5,15.5-5,15.5-12.7s-5.9-11.8-15.5-12.3c-5.9,0-12.3,0.5-18.2,0c-7.3-0.9-8.2,2.3-8.2,8.2
			C231.9,131.9,231.9,131.9,248.3,131.9z"/>
		<path class="st0" d="M246.5,57.2c5,0,10.5-0.5,15.5,0c9.1,0.9,15.9,7.7,16.4,15.9c0.5,8.2-5.9,15.9-15.5,16.8
			c-11.4,0.9-22.8,0.5-34.6,0.5c-4.6,0-5-3.2-5-6.8c0-6.4,0-13.2,0-19.6c0-5.5,2.3-7.3,7.7-6.8C236,57.6,241,57.2,246.5,57.2
			L246.5,57.2z M247.8,82.2L247.8,82.2c4.1,0,8.7,0,12.7,0c5.5-0.5,8.7-2.7,8.7-8.2s-3.6-7.7-9.1-7.7c-6.8,0-14.1,0.5-20.9,0
			c-5.9-0.5-7.3,1.4-7.7,7.3c-0.5,8.2,2.3,10.9,10,9.6C243.8,81.8,246,82.2,247.8,82.2z"/>
	</g>
</g>
<path class="st0" d="M7.1-132.5c2-1.4,3.5-3.3,5.3-5c6-5.8,11.9-11.7,17.9-17.5c0.5-0.4,0.8-1,1.3-1.4c0.4,0,0.8,0,1.2,0
	c0.6,0.7,0.4,1.5,0.4,2.2c0,3.5,0,7.1,0,10.6c0.2,0.1,0.3,0.1,0.5,0.2c4.4-4.4,8.7-8.7,13.1-13.1c0.4,0,0.8,0,1.2,0
	c0,7.9,0.1,15.8,0.1,23.7c0,0.8,0.1,1.8-1,1.7c-1.1-0.1-0.9-1.1-0.9-1.9c0-6.1,0-12.3,0-18.4c0-0.5,0.2-1-0.3-1.7
	c-3.7,3.7-7.4,7.3-11.1,10.9c-0.8,0.8-1.4,2.4-2.7,1.8c-1.3-0.5-0.7-2.1-0.7-3.2c-0.1-3.1,0-6.2-0.5-9.6c-0.5,0.6-0.9,1.2-1.5,1.7
	c-6.6,6.5-13.2,12.9-19.8,19.4c-0.7,0.7-1.3,1.4-2.3,0.6C7.1-131.7,7.1-132.1,7.1-132.5z"/>
<path class="st0" d="M180.8-156.4c0.2,0.9-0.1,1.6-0.8,2.2c-7.6,7.4-15.2,14.8-22.8,22.3c-0.4,0.4-0.9,1.2-1.6,0.9
	c-0.9-0.3-0.6-1.2-0.6-1.9c0-3.6,0-7.2,0-10.7c-0.8-0.2-1,0.4-1.3,0.7c-3.9,3.7-7.7,7.4-11.6,11.1c-0.4,0.4-0.8,1.1-1.5,0.8
	c-0.6-0.2-0.6-0.9-0.6-1.5c0-7.4,0-14.9,0-22.3c0-0.5,0.2-1,0.3-1.5c0.4,0,0.8,0,1.2,0c0.5,0.8,0.4,1.6,0.4,2.5c0,5.9,0,11.9,0,17.8
	c0,0.5-0.3,1.2,0.4,1.7c1.2-1.2,2.4-2.5,3.6-3.7c2.9-2.8,5.7-5.6,8.6-8.5c0.4-0.4,0.8-1,1.5-0.7c0.8,0.3,0.6,1,0.6,1.7
	c0,1.2,0,2.4,0,3.5c0,2.6,0,5.1,0,7.8c7.8-7.5,15.3-14.8,22.8-22.1C180-156.4,180.4-156.4,180.8-156.4z"/>
<path class="st0" d="M220.8-156.4c4.6,2,6.7,5.2,5.4,9c-0.7,2-0.3,3.3,0.4,5.1c2.1,5.3-0.8,10.7-6.7,11.3c-3.8,0.4-7.7,0.1-11.6,0.1
	c-0.9,0-1.4-0.4-1.4-1.3c0.1-8.1-0.3-16.2,0.2-24.2C211.7-156.4,216.2-156.4,220.8-156.4z M208.8-143.7c0,3.1,0.1,6.3,0,9.4
	c0,1.3,0.4,1.5,1.6,1.5c2.8-0.1,5.6,0,8.4,0s4.9-1.2,6.1-3.6s0.9-4.7-0.9-6.8c-0.8-1-1-1.8-0.3-3c2.3-4.3,0-8.2-4.9-8.4
	c-2.9-0.1-5.7,0-8.6,0c-1,0-1.4,0.3-1.4,1.3C208.9-150.1,208.8-146.9,208.8-143.7z"/>
<path class="st0" d="M53.5-156.4c-0.1,0.8,0.6,1,1.1,1.5c7.2,7.1,14.5,14.2,21.8,21.3c0.4,0.4,0.8,0.8,1.2,1.3
	c0.2,0.3,0.2,0.8-0.2,1.1c-0.3,0.3-0.7,0.3-1.1,0.1c-0.5-0.4-1-0.9-1.5-1.3c-7-6.8-13.9-13.6-20.9-20.5c-0.6,0.5-0.3,1-0.3,1.5
	c0,5.7,0,11.5,0,17.2c0,1.1,0.3,1.5,1.4,1.4c2.1-0.1,4.3,0,6.4,0c0.7,0,1.4,0.1,1.4,1c0,0.9-0.7,1-1.4,1c-2.7,0-5.5,0-8.2,0
	c-0.9,0-1.4-0.3-1.4-1.2c0.1-8.1-0.3-16.2,0.2-24.2C52.4-156.4,53-156.4,53.5-156.4z"/>
<path class="st0" d="M175.2-156.4c0.1,0.8,0,1.4-0.6,2.1c-4.6,4.4-9.1,8.9-13.7,13.4c-0.4,0.4-0.9,1.1-1.7,0.7
	c-0.7-0.3-0.5-1-0.5-1.6c0-3.7,0-7.4,0-11.1c-0.2-0.1-0.4-0.2-0.5-0.3c-1.4,1.5-2.8,3.1-4.3,4.5c-2.7,2.7-5.4,5.3-8,7.9
	c-0.4,0.4-0.8,0.8-1.4,0.6c-0.6-0.2-0.8-0.7-0.7-1.2c0.1-5-0.2-10,0.2-15c0.5,0,1.1,0,1.6,0c0,4.2,0,8.5,0,13.3
	c2.9-2.9,5.4-5.3,7.8-7.7c1.8-1.9,3.9-3.4,5.4-5.6c0.5,0,1.1,0,1.6,0c0,4.3,0,8.5,0,13.1c4.7-4.6,9.2-8.8,13.6-13.1
	C174.4-156.4,174.8-156.4,175.2-156.4z"/>
<path class="st0" d="M135.9-156.4c0.9,1.6,0,1.8-1.3,1.8c-3.9,0-7.7,0-11.6,0c-1.2,0-1.6,0.2-1.6,1.5c0.1,6.3,0.1,12.5,0,18.8
	c0,1.4,0.5,1.6,1.7,1.5c3.7-0.1,7.5,0,11.2,0c0.8,0,1.9-0.2,1.9,0.9c0.1,1.2-1.1,1-1.9,1c-4.3,0-8.5,0-12.8,0c-1.3,0-2-0.2-2-1.7
	c0-7.4,0-14.9,0-22.3c0-0.5,0.1-1,0.4-1.5C125.3-156.4,130.6-156.4,135.9-156.4z"/>
<path class="st0" d="M190-156.4c1.2,0.5,2.4,0.9,3.4,1.9c0.4,0.4,0.9,0.9,0.4,1.5c-0.5,0.6-1.1,0.4-1.6,0c-0.8-0.6-1.6-1.2-2.6-1.4
	c-2.3-0.5-4.7,0.4-5.9,2.3c-1.3,2-1.2,4.5,0.4,6.4c1.4,1.6,3,3.1,4.6,4.6c1.2,1.2,1.7,2.5,1.2,4.1c-0.5,1.6-1.9,2.4-3.5,2.5
	c-2,0.1-4,0.1-6,0.1c-0.7,0-1.4-0.2-1.3-1.1c0.1-0.8,0.7-0.8,1.4-0.8c1.8,0,3.6,0,5.4,0c0.9,0,1.7-0.2,2.1-1.1
	c0.4-0.9,0-1.7-0.6-2.3c-1.3-1.3-2.7-2.6-4-3.9c-4.2-4.3-3.1-9.9,2.6-12.4c0.2-0.1,0.3-0.2,0.4-0.3
	C187.6-156.4,188.8-156.4,190-156.4z"/>
<path class="st0" d="M100.7-156.4c0.8,2.7,0.3,5.4,0.3,8.1c0,1.5,0.4,2,2,1.9c1.7-0.1,3.5-0.1,5.2,0c1.6,0.1,2.3-0.2,2.2-2
	c-0.2-2.6,0-5.3,0-7.9c0.5,0,1.1,0,1.6,0c0.5,3.6,0.1,7.1,0.2,10.7c0,0.8-0.5,1.1-1.3,1.1c-3.5,0-6.9,0-10.4,0
	c-0.7,0-1.3-0.2-1.3-0.9c0.1-3.6-0.5-7.3,0.4-10.9C99.9-156.4,100.3-156.4,100.7-156.4z"/>
<path class="st0" d="M97.1-156.4c0.4,1.6,0.2,3.2,0.2,4.9c0,6,0,12,0,18c0,0.5,0,1.1,0,1.6c-0.1,0.5-0.4,1-1,1
	c-0.5-0.1-0.8-0.4-0.8-1c0-0.2,0-0.4,0-0.6c0-7.5,0-15,0-22.5c0-0.4,0.1-0.9,0.1-1.3C96.1-156.4,96.6-156.4,97.1-156.4z"/>
<path class="st0" d="M115.5-156.4c0.4,0.6,0.4,1.3,0.4,2.1c0,7.1,0,14.2,0,21.3c0,0.5,0,0.9-0.1,1.4c-0.1,0.4-0.4,0.7-0.9,0.7
	s-0.8-0.3-0.9-0.7c-0.1-0.4-0.1-0.9-0.1-1.4c0-7.2,0-14.3,0-21.5c0-0.7,0.1-1.3,0.4-1.9C114.7-156.4,115.1-156.4,115.5-156.4z"/>
<path class="st0" d="M92.3-156.4c0.6,1.3,0.1,1.8-1.2,1.8c-5.8,0-11.5,0-17.3,0c-1.5,0-1.7-0.7-1.5-1.8
	C79-156.4,85.7-156.4,92.3-156.4z"/>
<path class="st0" d="M42.4-144.2c-4.3,4.3-8.3,8.2-12.2,12c-0.5,0.5-1,1.4-1.9,1.1c-1.1-0.4-0.7-1.4-0.7-2.2c0-3.5,0-6.9,0-10.4
	c-0.7-0.1-0.9,0.5-1.3,0.8c-3.8,3.7-7.6,7.4-11.3,11.1c-0.5,0.5-1.1,1.4-2,0.5c-0.7-0.8,0.1-1.3,0.6-1.8c4.6-4.5,9.1-9,13.7-13.4
	c0.4-0.4,0.8-1,1.5-0.7c0.8,0.3,0.7,1,0.7,1.7c0,3.6,0,7.3,0,11.6c1.8-1.8,3.1-3.2,4.6-4.6c2.6-2.6,5.3-5.2,7.9-7.8
	c0.5-0.4,0.9-1.1,1.7-0.8c0.9,0.3,0.7,1.2,0.7,1.9c0,4.2,0,8.4,0,12.5c0,0.8,0.2,1.8-0.9,1.8c-1.3,0-1-1.1-1-1.9
	C42.3-136.5,42.4-140.1,42.4-144.2z"/>
<path class="st0" d="M183.7-130.9c-1,0-2,0-3,0c-0.8,0-1.7,0-1.6-1c0-0.9,0.9-0.9,1.7-0.9c1.7,0,3.5,0,5.2,0c2.5,0.1,4.4-1,5.5-3.2
	c1.1-2.3,0.4-4.5-1.3-6.3c-1.3-1.4-2.7-2.7-4.1-4c-1.7-1.7-1.8-3.7-0.4-5.2c1.5-1.6,3.7-1.6,5.5,0c0.8,0.7,1.5,1.5,2.3,2.2
	c0.4,0.4,0.5,1,0.1,1.4c-0.4,0.4-1,0.3-1.4-0.1c-0.8-0.7-1.5-1.5-2.3-2.2c-0.8-0.8-1.8-1-2.6-0.1c-0.9,0.8-0.8,1.8,0,2.6
	c1.2,1.2,2.4,2.5,3.7,3.6c2.7,2.5,3.8,5.4,2.4,8.8c-1.5,3.4-4.4,4.6-8.1,4.5C184.6-130.9,184.1-130.9,183.7-130.9z"/>
<path class="st0" d="M57.2-144.2c0,2.5,0.1,4.5,0,6.5c0,1,0.2,1.4,1.3,1.3c1.1-0.1,2.1,0,3.2,0c0.6,0,1,0.2,1.1,0.9
	c0,0.7-0.5,0.9-1,1c-1.7,0.1-3.5,0.1-5.2,0c-0.8,0-1.1-0.5-1.1-1.3c0-3.4,0-6.8,0-10.2c0-0.5,0-0.9,0.5-1.2c0.5-0.2,0.9,0.1,1.2,0.4
	c4.8,4.7,9.6,9.4,14.4,14.1c0.5,0.5,0.7,1,0.1,1.5c-0.8,0.6-1.2-0.1-1.6-0.5c-3.7-3.6-7.4-7.3-11.2-10.9
	C58.5-143.1,58-143.5,57.2-144.2z"/>
<path class="st0" d="M105.7-142.7c1.6,0,3.2,0,4.8,0c1.2,0,1.7,0.3,1.7,1.5c-0.1,2.9,0,5.9,0,8.8c0,0.7,0,1.4-0.9,1.4
	s-0.9-0.7-0.9-1.4c0-2.3,0-4.7,0-7c0-1-0.2-1.5-1.4-1.5c-2.1,0.1-4.3,0.1-6.4,0c-1.3-0.1-1.5,0.4-1.5,1.6c0.1,2.3,0,4.6,0,6.8
	c0,0.8-0.1,1.6-1.1,1.5c-0.9-0.1-0.9-0.8-0.9-1.5c0-2.9,0-5.7,0-8.6c0-1.3,0.6-1.7,1.8-1.7C102.5-142.7,104.1-142.7,105.7-142.7z"/>
<path class="st0" d="M129.7-144.6c-1.5,0-3.1-0.1-4.6,0c-1.4,0.1-1.9-0.5-1.8-1.8c0.1-1.6,0.1-3.1,0-4.7c0-1.2,0.4-1.8,1.7-1.7
	c3.2,0.1,6.4,0,9.6,0c0.8,0,1.7,0,1.7,0.9c0,1.1-1,1-1.8,1c-2.5,0-5.1,0.1-7.6,0c-1.3-0.1-1.9,0.2-1.8,1.6c0.1,2.9,0,2.9,2.9,2.9
	c2.2,0,4.4,0,6.6,0c0.7,0,1.7-0.1,1.7,0.9s-0.9,0.9-1.6,0.9C133-144.6,131.3-144.6,129.7-144.6z"/>
<path class="st0" d="M129.9-142.7c1.7,0,3.3,0,5,0c0.6,0,1.3,0,1.4,0.8c0.1,0.9-0.7,1.1-1.3,1.1c-2.7,0-5.5,0.1-8.2,0
	c-1.4-0.1-1.8,0.4-1.6,1.6c0.1,0.4,0.1,0.9,0,1.4c-0.2,1.2,0.2,1.6,1.5,1.5c2.7-0.1,5.3,0,8,0c0.7,0,1.6-0.1,1.7,0.9
	c0,0.9-0.9,1-1.6,1c-3.2,0-6.4,0-9.6,0c-1.3,0-1.8-0.5-1.8-1.8c0.1-1.6,0.1-3.1,0-4.7c-0.1-1.3,0.4-1.9,1.8-1.8
	C126.7-142.7,128.3-142.7,129.9-142.7z"/>
<path class="st0" d="M83.3-141.9c0-3,0-6,0-9c0-1.4,0.5-2,2-1.9c2,0.1,4,0,6,0c0.8,0,1.4,0.2,1.4,1c0,0.7-0.7,0.9-1.4,0.9
	c-1.5,0-3.1,0.1-4.6,0c-1.1-0.1-1.5,0.3-1.5,1.4c0.1,5.3,0,10.7,0,16c0,0.5,0,0.9,0,1.4c0,0.7-0.3,1.2-1,1.1c-0.7,0-0.8-0.6-0.9-1.1
	c0-1.5,0-3,0-4.5C83.3-138.4,83.3-140.1,83.3-141.9z"/>
<path class="st0" d="M81.5-141.8c0,3,0,6,0,9c0,0.8,0.2,1.8-0.9,1.8s-1-1-1-1.8c0-5.5-0.1-11,0-16.4c0-1.5-0.4-1.9-1.9-1.8
	c-1.4,0.1-2.8,0-4.2,0c-0.7,0-1.2-0.1-1.3-0.9c0-0.8,0.5-1,1.2-1c2.2,0,4.4,0,6.6,0c1.2,0,1.5,0.6,1.4,1.6
	C81.5-148.1,81.5-144.9,81.5-141.8z"/>
<path class="st0" d="M215.9-143.6c1.1,0,2.1,0,3.2,0c2.5,0.1,4.4,1.8,4.5,4.1c0.2,2.6-1.4,4.7-4,4.9c-2.5,0.2-5,0.1-7.6,0.2
	c-1,0-1.4-0.5-1.4-1.5c0-2.1,0-4.2,0-6.3c0-1,0.4-1.4,1.4-1.4C213.4-143.6,214.6-143.6,215.9-143.6z M216.2-136.4c0.7,0,1.5,0,2.2,0
	c2.1-0.1,3.4-1.1,3.4-2.8s-1.3-2.6-3.4-2.7c-1.3,0-2.7,0.1-4,0c-1.6-0.2-1.8,0.5-1.8,1.8C212.6-136.4,212.6-136.4,216.2-136.4z"/>
<path class="st0" d="M215.8-152.8c1.1,0,2.3-0.1,3.4,0c2,0.2,3.5,1.7,3.6,3.5c0.1,1.8-1.3,3.5-3.4,3.7c-2.5,0.2-5,0.1-7.6,0.1
	c-1,0-1.1-0.7-1.1-1.5c0-1.4,0-2.9,0-4.3c0-1.2,0.5-1.6,1.7-1.5C213.5-152.7,214.6-152.8,215.8-152.8L215.8-152.8z M216.1-147.3
	L216.1-147.3c0.9,0,1.9,0,2.8,0c1.2-0.1,1.9-0.6,1.9-1.8c0-1.2-0.8-1.7-2-1.7c-1.5,0-3.1,0.1-4.6,0c-1.3-0.1-1.6,0.3-1.7,1.6
	c-0.1,1.8,0.5,2.4,2.2,2.1C215.2-147.4,215.7-147.3,216.1-147.3z"/>
</svg>
