<?xml version="1.0" encoding="utf-8"?>
<!-- Generator: Adobe Illustrator 27.0.0, SVG Export Plug-In . SVG Version: 6.00 Build 0)  -->
<svg version="1.1" id="Layer_1" xmlns="http://www.w3.org/2000/svg" xmlns:xlink="http://www.w3.org/1999/xlink" x="0px" y="0px"
	 viewBox="0 0 500 500" style="enable-background:new 0 0 500 500;" xml:space="preserve">
<style type="text/css">
	.st0{fill:none;stroke:url(#SVGID_1_);stroke-miterlimit:10;}
	.st1{fill:url(#SVGID_00000027602727731124010460000016178630421575561890_);}
	.st2{fill:url(#SVGID_00000124151877804628099010000005341606728672246686_);}
	.st3{fill:#2B2B2B;}
	.st4{fill:#0F0E35;}
	.st5{fill:none;stroke:#000000;stroke-width:0.5;stroke-miterlimit:10;}
	.st6{fill:#231F20;stroke:#2B2B2B;stroke-miterlimit:10;}
	.st7{fill:url(#SVGID_00000031904161878820330940000017345403682222866867_);}
	.st8{fill:url(#SVGID_00000109715361560782387380000004427570498797402557_);}
	.st9{fill:none;stroke:#000000;stroke-miterlimit:10;}
	.st10{fill:#443E40;}
	.st11{fill:none;stroke:#2B2B2B;stroke-miterlimit:10;}
	.st12{fill:#F9F5F4;}
</style>
<g>
	<linearGradient id="SVGID_1_" gradientUnits="userSpaceOnUse" x1="42.4495" y1="250" x2="457.5505" y2="250">
		<stop  offset="0" style="stop-color:#0A2328"/>
		<stop  offset="0.2437" style="stop-color:#122F35"/>
		<stop  offset="0.6855" style="stop-color:#1E4147"/>
		<stop  offset="1" style="stop-color:#22474E"/>
	</linearGradient>
	<ellipse class="st0" cx="250" cy="250" rx="207.1" ry="217.4"/>
	
		<linearGradient id="SVGID_00000028323096572634688640000000289005395851930799_" gradientUnits="userSpaceOnUse" x1="110.4099" y1="245.6576" x2="261.2957" y2="245.6576">
		<stop  offset="0" style="stop-color:#EEC691"/>
		<stop  offset="1" style="stop-color:#9E5B3D"/>
	</linearGradient>
	<path style="fill:url(#SVGID_00000028323096572634688640000000289005395851930799_);" d="M132,311.4c0,0.1,0,0.1,0,0.2
		c0.3,1.1,3.9,13,15.1,21.7c4.7,3.7,12,7.1,19.5,10.1c2.9,1.2,2.9,2.4,5.8,2.8l9.4,1.8c0,0,0,0,0,0l10,0c0,0,0,0,0,0l11.9-2.3
		c0,0,0,0,0.1,0l9.7-4.8c0,0,0,0,0.1,0l9.7-8.4c0,0,0,0,0.1-0.1l3.5-7.1c0,0,0,0,0-0.1l1.8-9.7c0,0,0.8-3.7,2.9-4.2
		c3.4-0.9,7-5.4,10.1-10.2c2.3-3.6,4.6-7,5.6-11.2c0,0,0,0,0,0l4.4-11.4c0,0,0,0,0,0l4.9-20.8c0,0,0,0,0,0l3.9-22.1c0,0,0,0,0,0
		l0.7-8.2c0.4-4.5,0.3-9-0.4-13.5l-0.9-6.3c0,0,0,0,0,0l0.2-16.4l0.1-4.1c0,0,0,0,0-0.1l-2.5-12.3c0,0,0,0,0,0l-5-15.7
		c0-0.2-0.2-0.2-0.4-0.1l-11.7,6.4c0,0,0,0-0.1,0l-5.8,1.2c-0.1,0-0.1,0-0.2,0l-6.5-4.8c0,0-0.1,0-0.1-0.1l-3.1-5.2l-1.3,1.7
		l-2.9,1.4c0,0-0.1,0-0.1,0l-11.6-1.4c0,0,0,0,0,0l-4.2-1.1c0,0,0,0-0.1,0l-4.7-0.2c0,0,0,0,0,0l-5.4,0.2c0,0,0,0,0,0l-8-0.6
		l-0.3-2.2l-5.2,4.1l2.5-3c0,0,0,0,0-0.1l2-4.1l-6.3,5.1l0.1-0.6l0.6-2.5c0-0.1,0-0.1,0.1-0.1l4.8-4.1c0,0,0.1-0.1,0.1-0.1l0.8-2.5
		l-0.3-2.1l-3.6-0.5c0,0-0.1,0-0.1,0l-4.9,1.3l-7.2,1.6c0,0-0.1,0-0.1,0.1l-2.5,2.6c0,0,0,0,0,0l-2.9,4.1c0,0-0.1,0.1-0.1,0.1
		l-3.8,1.6c0,0,0,0,0,0l-4.8,1.1l-8.4,1.9c0,0,0,0,0,0l-5.5,1.8c0,0-0.1,0-0.1,0l-3,2.5c0,0-0.1,0.1-0.1,0.2l-0.6,3.4l-0.6,3.7
		c0,0,0,0,0,0.1l-2.1,5.2l0.7,1.4l1,2l-2.4,13.2c0,0,0,0,0,0l-1.2,3.9c0,0,0,0.1,0,0.1l0.8,5.8l1.3,13.9c0,0,0,0,0,0l-0.5,7.5
		l-0.8,8.1c0,0,0,0.1,0,0.1l0.8,2.2c0,0,0,0,0,0.1l0.3,2.4l-2.2,1.4l-3.3-16.6c0,0,0,0,0,0l-2.9-8.5l-0.8-0.5l-3.3-3.8c0,0,0,0,0,0
		l-5.5-4.5l-1.5,0l-1.4,1.2l-1,9.1c0,0,0,0,0,0l-1.7,9.3c0,0,0,0,0,0l-0.8,6.6c0,0,0,0,0,0.1l0.7,4c0,0,0,0,0,0.1l2.3,4.6
		c0,0,0,0,0,0l2.9,7.3c0,0,0,0,0,0.1l4.9,7c0,0,0,0.1,0.1,0.1l5,3c0.1,0,0.1,0,0.2,0l4.6-0.8c0,0,0,0,0,0l2.6-0.2l1.2,3.3
		c0,0,0,0,0,0l4.5,9.7c0,0,0,0.1,0,0.1l-0.9,8.9c0,0,0,0,0,0.1l1,6.9c0,0,0,0,0,0l2.8,9.5c0,0,0,0.1,0,0.1l-1.3,5c0,0,0,0.1,0,0.1
		l-3.8,4.9l-4.2,5.8c0,0,0,0,0,0.1L132,311.4z"/>
	
		<linearGradient id="SVGID_00000135683562878865796250000017566030312859434401_" gradientUnits="userSpaceOnUse" x1="119.3539" y1="300.7285" x2="142.1071" y2="300.7285">
		<stop  offset="0" style="stop-color:#0A2328"/>
		<stop  offset="0.2437" style="stop-color:#122F35"/>
		<stop  offset="0.6855" style="stop-color:#1E4147"/>
		<stop  offset="1" style="stop-color:#22474E"/>
	</linearGradient>
	<path style="fill:url(#SVGID_00000135683562878865796250000017566030312859434401_);" d="M131.2,311.6c0,0-6.8-8.2-11.1-7.4
		c-4.3,0.8,10.8-6.8,10.8-6.8l8.5-6.4l1.8-1.2l0.9,4.8l-1.7,4.2l-4.2,5.2l-3.5,4.7L131.2,311.6z"/>
	<path class="st3" d="M179.8,153.7v-1.8l4.5-3.3l1.6-2.3l-1.2-2.9l-6.7,0.8l-4.6,0.2l-4.7,2.1l-2.5,2.5l-2.1,3.5l-1.8,1.6l-4.8,0.8
		l-10.7,2.8l-7.7,2.8l-1.7,2.7l-0.3,3.9l-1,3.8l-1.9,4.3l1.2-0.4l-0.5,1.6l1.2,0.8v3.6l-1,4.2l-2.1,7.6l-0.4,5.5l1.3,6.6l1,4
		l-0.1,4.5l-0.4,8.8l-1,6.8l0.9,3.6l0.8,2l-2.5,2.3l-1.5-7l-0.9-7.3l-1-4l-2-5.5l-1-3.7l0.1-1.2l-1.7-1l-3.5-5l-2.4-5.6l-3.2-9.9
		v-3.2l-1.7-6l-1-3.5l-0.2-5.2l1.2-5.2l1.7-0.8l0.4,2.1l2.4,0.4l2.3,2.3l1.2-0.7l2.9-3.2l1.5-2.3l4-3.6l5.1-4.2l3.6-3.1l3.6-3.1
		l4.5-3.7l4.8-3.4l5.4-3.3l7.1-3.6l9-3.2l8-2.2l7.4-1.2l9.3-1.3l8.8,0.8l5.4,1.3l12,3.9l3.6,1.4l7.6,3.2l6,2.7c0,0,3.4,1.5,3.9,1.7
		s8.1,3.8,8.1,3.8l6,4.4l8.1,8l4.7,4.7l4.8,4l1.1,3.3l-0.7,3.8l-2.6,4.5l-4.5,5.6l-8.7,9.8l-2.1,3.6l-0.3-3.4l0.4-5.1l-0.4-2.4
		l-0.9-4.4l-0.3-4.8l-2.4-4.8l-2.1-6.8l-1.5-5.1l-2.8,0.3l-2.9,2.4l-5.1,3.4l-4.2,1l-3,0.1l-3.2-1.6l-2.8-2.4l-2.4-3.6l-1.2-2.2
		l-1.5,1.4l-3,1.5l-3.9,0.1l-6.3-1.1l-4.7-2l-3.2,0.3h-5.3l-6-0.3l-3.5,0.2l-1.1-0.6l0.4-2.1l-5.6,4.1l3.5-4.8l1.2-2.1l-5.3,3.7
		l-1.5,0.8"/>
	<polygon class="st4" points="114.6,162.5 115.8,164.5 120.6,167.2 122.6,166.1 126.1,160.9 135.2,153.2 142.5,147 151.8,139.9 
		156.6,136.9 169,131.3 177.4,128.5 184,127.1 188.9,126.3 194.3,125.8 204.5,125.6 211.9,127 217.9,128.8 226.8,131.9 231,134.2 
		234.9,135.3 243.4,139.1 254.5,144.5 261.1,149.8 268.6,157.2 275.6,163.7 276.6,164.1 278.2,162.7 281.4,160.1 285.1,154.2 
		288.1,148.5 290.2,146.9 292.9,144.6 297.8,124.6 298.3,122.2 296.5,116 293.6,111.8 289.4,108.4 284.4,105.9 277.5,102.8 
		270.2,100.6 259,97.9 253.3,96.7 248.9,96.1 243,95.8 236,96.1 224.6,97.8 220.3,98.1 215.3,97.6 211.8,95.8 206,91.9 201.5,89.8 
		197.5,89.8 191.4,90.1 182.9,91.3 177.1,93.1 173.6,94.7 167.4,97.9 160,101.7 154.1,104 149.2,106.1 142.4,108.9 137,111.7 
		130.7,117.6 127.8,123.5 125.7,128.5 123.9,131.8 121,137.8 119.1,143.3 115.8,157.7 115.1,161.7 	"/>
	<g>
		<g>
			<path d="M115.7,161.7c0.4-4.6,1.3-9.2,2.4-13.7c1.1-4.5,2.4-8.9,4.5-13c1-2.1,2.2-4.1,3.2-6.1c0.9-1.8,1.6-3.7,2.4-5.6
				c1.6-4.1,3.7-7.6,7.3-10.3c3-2.2,6.5-3.7,10-5.1c3.9-1.6,7.7-3.3,11.5-4.9c4.3-1.9,8.6-3.8,12.7-6c2-1,4-2.2,6-3.1
				c2-0.9,4.1-1.6,6.2-2.1c4.2-1,8.6-1.3,12.9-1.8c2.2-0.2,4.5-0.5,6.7,0c2.1,0.5,3.9,1.8,5.6,3c3.1,2.3,6,4.7,10,5.2
				c3.9,0.5,7.9-0.3,11.8-0.9c8.9-1.5,18.2-1.9,27.1,0.2c5.3,1.2,10.6,2.4,15.8,3.8c5.5,1.5,11.1,3.4,16,6.4
				c4.4,2.7,8.3,6.5,9.6,11.7c0.3,1.3,0.5,2.7,0.5,4c0,0.3,0.5,0.3,0.5,0c0-5.3-2.5-10-6.5-13.4c-4.2-3.6-9.6-5.9-14.8-7.6
				c-5.4-1.8-11-3-16.6-4.3c-3.6-0.8-7.1-1.7-10.8-2.1c-4.7-0.5-9.5-0.4-14.2,0c-4.1,0.3-8.1,1.3-12.2,1.8
				c-4.2,0.5-8.2,0.3-11.8-2.1c-3.5-2.2-6.6-5.7-10.8-6.2c-2.2-0.3-4.5,0-6.7,0.2c-2.2,0.2-4.4,0.4-6.6,0.7
				c-4.1,0.6-8.2,1.5-11.9,3.2c-2.1,0.9-4.1,2.2-6.2,3.2c-2.1,1.1-4.3,2.1-6.5,3.1c-4.4,2-8.8,3.9-13.2,5.8
				c-3.5,1.5-7.2,2.8-10.6,4.6c-3.3,1.7-6.3,4-8.4,7c-2.5,3.6-3.6,8.1-5.6,12c-2.1,4-4.2,7.9-5.6,12.3c-1.4,4.5-2.6,9-3.4,13.6
				c-0.4,2.2-0.7,4.4-0.9,6.6C115.1,162.1,115.6,162.1,115.7,161.7L115.7,161.7z"/>
		</g>
	</g>
	<g>
		<g>
			<path d="M114.4,162.4c-3.6,5.3-1.5,12.5,0,18.2c1.7,6.2,2.4,12.7,4.9,18.7c1.5,3.5,3.6,6.7,6.3,9.4c0.2,0.2,0.6-0.1,0.4-0.4
				c-2.3-2.4-4.3-5.1-5.7-8.1c-1.4-2.9-2.3-6.1-3-9.2c-0.7-3-1.2-6-2-9c-0.8-3.1-1.7-6.1-2.1-9.2c-0.5-3.4-0.4-7.1,1.6-10
				C115,162.4,114.6,162.1,114.4,162.4L114.4,162.4z"/>
		</g>
	</g>
	<g>
		<g>
			<path d="M115.8,164.8c0.8,0,1.6,0.5,2.3,1c0.8,0.5,1.5,1.1,2.3,1.7c0.2,0.1,0.4,0,0.4-0.2c0.2-4.8,2.2-9.2,4.8-13.2
				c1.3-2.1,2.8-4,4.4-6c1.5-1.9,2.9-3.7,4.5-5.5c3.2-3.7,7.1-6.8,11.2-9.6c4.1-2.8,8.4-5.3,12.8-7.6c4.8-2.5,10-4.4,14.9-6.6
				c2.5-1.1,4.9-2.4,7.3-3.7c2.4-1.3,4.9-2.5,7.3-3.7c7.3-3.4,14.9-6.3,22.6-8.7c3.1-1,6.2-1.9,9.3-2.6c1.4-0.3,2.8-0.6,4.3-0.8
				c0.9-0.1,2-0.2,2.9,0c0.2,0.1,0.5,0.2,0.6,0.4c0.2,0.3,0.6,0,0.4-0.3c-0.4-0.6-1.2-0.7-1.8-0.8c-1.1-0.1-2.3,0.1-3.4,0.3
				c-3.2,0.5-6.4,1.4-9.5,2.3c-7.2,2.1-14.2,4.6-21.1,7.6c-2.6,1.1-5.2,2.3-7.7,3.6c-2.5,1.2-4.9,2.6-7.4,3.9
				c-5,2.7-10.3,4.5-15.4,6.9c-4.7,2.2-9.2,4.8-13.6,7.6c-4.2,2.7-8.3,5.6-11.9,9.1c-1.7,1.7-3.2,3.6-4.7,5.5
				c-1.5,1.9-3.1,3.8-4.5,5.8c-2.8,3.8-5.3,8-6.3,12.7c-0.2,1.1-0.4,2.3-0.4,3.4c0.1-0.1,0.3-0.1,0.4-0.2c-0.9-0.6-1.7-1.3-2.6-1.9
				c-0.7-0.4-1.4-0.9-2.2-0.8C115.5,164.3,115.5,164.8,115.8,164.8L115.8,164.8z"/>
		</g>
	</g>
	<g>
		<g>
			<path d="M394.2,177.9c-1.8,0.5-3.5,1.6-4.9,2.7c-1.6,1.2-3.1,2.7-3.9,4.6c-0.6,1.5-0.4,3.2,0.8,4.4c1.2,1.2,3.1,1.6,4.8,1.7
				c1.9,0,4-0.5,5.5-1.8c0.2-0.2-0.1-0.6-0.4-0.4c-1.2,1.1-2.9,1.6-4.4,1.6c-1.6,0.1-3.4-0.2-4.7-1.2c-3.4-2.5,0.1-6.5,2.3-8.4
				c1.5-1.2,3.2-2.3,5.1-2.9C394.6,178.3,394.5,177.8,394.2,177.9L394.2,177.9z"/>
		</g>
	</g>
	<g>
		<g>
			<path d="M387.7,186.7c0,0-0.1,0-0.1,0.1c0,0,0.1,0,0,0C387.5,186.7,387.7,186.7,387.7,186.7c0.3,0.2,0.2,0.3,0.1,0.4c0,0,0,0,0,0
				c0,0-0.1,0.1,0,0c0,0,0.1-0.1,0.1-0.1c0.2-0.2,0.5-0.4,0.7-0.6c0.7-0.5,1.4-1,2.1-1.4c0.1,0,0.2-0.1,0.3-0.1c0,0,0.1,0,0.1-0.1
				c0,0,0,0,0,0c0,0,0,0,0,0c0.1,0,0.1,0,0.2-0.1c0,0,0.1,0,0,0c0,0,0,0,0.1,0c0.3,0,0.3-0.5,0-0.5c-0.3,0-0.6,0.2-0.9,0.3
				c-0.4,0.2-0.8,0.5-1.2,0.8c-0.4,0.3-0.8,0.6-1.2,0.8c-0.2,0.2-0.5,0.4-0.7,0.6c-0.1,0.2-0.2,0.4,0.1,0.5c0.1,0,0.3-0.1,0.4-0.1
				C388.2,186.9,388,186.5,387.7,186.7L387.7,186.7z"/>
		</g>
	</g>
	<g>
		<g>
			<path d="M382.6,191.9c4.6,0,9.4,0.7,14-0.3c3.6-0.8,6.3-3.1,8.7-5.8c1.2-1.4,2.4-2.8,3.9-3.9c0.3-0.2,0-0.6-0.3-0.4
				c-2.6,1.9-4.3,4.7-6.7,6.7c-1.4,1.2-3,2.2-4.8,2.7c-2.2,0.6-4.6,0.7-6.9,0.7c-2.6,0-5.2-0.2-7.8-0.2
				C382.3,191.4,382.3,191.9,382.6,191.9L382.6,191.9z"/>
		</g>
	</g>
	<g>
		<g>
			<path d="M403.6,173.5c2.5,2.5,3.7,6.1,6.5,8.3c0.1,0.1,0.2,0,0.3,0c1.2-1,1.9-2.3,2.6-3.6c0.1-0.1,0-0.2,0-0.3
				c-1-1.2-2.1-2.4-3.2-3.5c-1.1-1.1-2.2-2.1-3.4-2.9c0,0.1,0.1,0.1,0.1,0.2c0.1-0.7-0.3-1.3-0.5-2c-0.1-0.3-0.6-0.2-0.5,0.1
				c0.2,0.6,0.5,1.2,0.5,1.9c0,0.1,0.1,0.2,0.1,0.2c1.3,0.8,2.4,1.9,3.5,2.9c1.1,1.1,2.1,2.2,3.1,3.4c0-0.1,0-0.2,0-0.3
				c-0.7,1.3-1.4,2.6-2.6,3.5c0.1,0,0.2,0,0.3,0c-2.8-2.1-3.9-5.8-6.4-8.2C403.8,172.9,403.4,173.3,403.6,173.5L403.6,173.5z"/>
		</g>
	</g>
	<g>
		<g>
			<path d="M383.2,191.9c-0.5,1.3-0.6,2.7-0.6,4.1c0,2.1,0.2,4.2,0.4,6.3c0.3,2.2,0.7,4.5,1.3,6.7c0.5,1.9,1.1,3.7,2,5.4
				c0.6,1.1,1.6,2.5,3,2.6c0.3,0,0.3-0.5,0-0.5c-1.2-0.1-2-1.3-2.5-2.2c-0.9-1.6-1.5-3.3-1.9-5c-1.1-4-1.7-8.2-1.8-12.4
				c0-1.5-0.1-3.3,0.5-4.7C383.8,191.9,383.3,191.7,383.2,191.9L383.2,191.9z"/>
		</g>
	</g>
	<g>
		<g>
			<path d="M419,160c0.3,0,0.3-0.5,0-0.5C418.7,159.5,418.7,160,419,160L419,160z"/>
		</g>
	</g>
	<g>
		<g>
			<path d="M331.4,436.2c0.3,0,0.3-0.5,0-0.5C331.1,435.7,331.1,436.2,331.4,436.2L331.4,436.2z"/>
		</g>
	</g>
	<g>
		<g>
			<path d="M318.4,333.8c0,6.6-0.9,13.1-1.6,19.6c-0.7,6.6-0.5,13.3-0.7,19.9c-0.3,6.6-0.7,13.2-0.5,19.8c0.1,3.1,0.5,6.2,1.2,9.3
				c0.7,3.1,1.6,6.1,2.4,9.1c0.8,3,1.3,6,1.9,9.1c0.6,2.6,1.3,5.4,2.9,7.6c0.2,0.3,0.6,0,0.4-0.3c-1.5-2-2.2-4.6-2.7-7
				c-0.6-2.5-0.9-5.1-1.6-7.6c-1.5-6.1-3.7-12.1-4.1-18.4c-0.3-6.5,0-13,0.3-19.5c0.3-6.6,0.1-13.3,0.6-19.9
				c0.6-7.3,1.8-14.5,1.8-21.8C318.9,333.5,318.4,333.5,318.4,333.8L318.4,333.8z"/>
		</g>
	</g>
	<g>
		<g>
			<path d="M229.8,313.2c-1,0.2-1.4,1.7-1.6,2.5c-0.5,1.7-0.8,3.5-1,5.2c-0.2,1.5-0.4,2.9-0.8,4.4c-0.7,2.4-2.1,4.6-3.6,6.6
				c-1.6,2-3.5,3.7-5.4,5.4c-1.9,1.6-3.9,3.1-6,4.4c-4.5,2.7-9.6,4.5-14.7,5.4c-2.6,0.4-5.2,0.6-7.8,0.6c-2.6-0.1-5.2,0-7.8-0.1
				c-2.7-0.1-5.3-0.4-7.9-1.4c-2.6-1-5-2.4-7.5-3.6c-2.4-1.2-4.8-1.9-7.2-3c-2.3-1-4.5-2.1-6.6-3.4c-4.3-2.6-8.2-5.9-11.3-9.9
				c-3.3-4.3-5-9.4-8.2-13.8c-1.3-1.8-2.8-3.3-4.6-4.7c-1.7-1.3-3.6-2.5-5.7-3.1c-0.9-0.2-1.9-0.3-2.8-0.2c-0.3,0-0.3,0.5,0,0.5
				c2.2-0.3,4.4,0.7,6.3,1.8c1.9,1.2,3.7,2.7,5.2,4.4c3.5,4,5.2,9.2,8.2,13.6c2.8,4,6.4,7.5,10.4,10.2c2.1,1.4,4.3,2.7,6.5,3.8
				c2.3,1.1,4.6,1.9,6.9,2.8c4.9,2,9.3,5.3,14.7,6c2.6,0.4,5.3,0.3,8,0.3c2.6,0,5.1,0.2,7.7,0c5.1-0.4,10.2-1.8,14.8-3.9
				c4.5-2.1,8.5-5,12.1-8.4c3.2-3,6.3-6.7,7.2-11.2c0.3-1.7,0.5-3.3,0.8-5c0.3-1.6,0.5-3.3,1.2-4.7c0.2-0.4,0.4-0.9,0.9-1
				C230.2,313.6,230.1,313.1,229.8,313.2L229.8,313.2z"/>
		</g>
	</g>
	<g>
		<g>
			<path d="M134.5,175.4c0.8-3.2,2.7-6,3-9.3c0.1-1.1,0-2.3,0.3-3.4c0.4-1.3,1.4-2.1,2.6-2.7c2.6-1.4,5.5-2.1,8.4-2.7
				c1.5-0.3,2.9-0.6,4.4-1c1.3-0.3,2.6-0.8,3.9-1.1c2.5-0.6,5.7-0.6,7.5-2.7c0.8-0.9,1-2.1,1.6-3.1c0.7-1.3,1.9-2.4,3.2-3.1
				c2.4-1.3,5.3-1.5,7.9-2c1-0.2,2-0.5,3.1-0.7c0.9-0.2,1.8-0.5,2.7-0.5c1.2,0,2,0.7,2.3,1.9c0.3,1.3-0.2,2.3-1.1,3.2
				c-1.6,1.6-4.2,2.7-5.1,4.9c-0.1,0.2,0.1,0.3,0.2,0.3c0.4,0,0.7,0,1.1,0c0.3,0,0.3-0.5,0-0.5c-0.4,0-0.7,0-1.1,0
				c0.1,0.1,0.2,0.2,0.2,0.3c0.4-1.1,1.4-1.8,2.3-2.5c0.9-0.7,2-1.4,2.8-2.3c0.6-0.6,1.2-1.4,1.3-2.4c0.1-1-0.3-2.2-1-2.8
				c-1.4-1.2-3.5-0.5-5.1-0.1c-2.5,0.7-5.2,0.9-7.7,1.6c-2.7,0.7-5.4,2.1-6.6,4.7c-0.6,1.3-0.9,2.5-2.1,3.4
				c-1.2,0.9-2.8,1.1-4.2,1.4c-2.9,0.6-5.6,1.5-8.5,2.1c-3,0.6-6.1,1.2-9,2.4c-1.3,0.6-2.8,1.3-3.7,2.4c-0.7,0.9-0.9,2.1-1,3.2
				c-0.1,1.7-0.3,3.3-0.9,5c-0.7,1.9-1.7,3.8-2.1,5.8C133.9,175.6,134.4,175.7,134.5,175.4L134.5,175.4z"/>
		</g>
	</g>
	<g>
		<g>
			<path d="M179.1,155.6c2.6-1.9,4.7-4.6,7.5-6.3c-0.1-0.1-0.2-0.2-0.4-0.3c-1.3,3.1-3.3,5.8-5.7,8.1c-0.2,0.2,0.1,0.5,0.3,0.4
				c2.4-1.5,4.3-3.7,6.7-5.2c0.3-0.2,0-0.6-0.3-0.4c-2.4,1.5-4.3,3.7-6.7,5.2c0.1,0.1,0.2,0.3,0.3,0.4c2.4-2.4,4.5-5.2,5.8-8.4
				c0.1-0.2-0.2-0.4-0.4-0.3c-2.8,1.7-4.8,4.4-7.5,6.3C178.6,155.3,178.9,155.8,179.1,155.6L179.1,155.6z"/>
		</g>
	</g>
	<g>
		<g>
			<path d="M186.8,152.8c-0.8,0.9-1.1,1.8-0.8,3c0,0.1,0.1,0.2,0.2,0.2c3.9,0.7,7.8,0.4,11.7,0.3c2-0.1,4,0,6,0.2
				c1.7,0.2,3.3,0.7,4.9,1.1c2.2,0.6,4.4,1.2,6.7,1.5c2.1,0.2,4.3,0.2,6.3-0.6c2.4-1.1,3.8-3.3,4.4-5.8c0.1-0.3-0.4-0.4-0.5-0.1
				c-0.5,2.4-1.8,4.5-4.1,5.5c-2.1,0.9-4.5,0.8-6.7,0.5c-2.3-0.3-4.5-0.9-6.7-1.6c-1.7-0.5-3.4-0.9-5.2-1.1c-2-0.2-4-0.1-6-0.1
				c-2.2,0.1-4.4,0.2-6.7,0.1c-1.1,0-2.5,0-3.6-0.4c-0.4-0.1-0.4-0.9-0.2-1.2c0.1-0.5,0.4-0.8,0.7-1.1
				C187.4,152.9,187.1,152.5,186.8,152.8L186.8,152.8z"/>
		</g>
	</g>
	<g>
		<g>
			<path d="M224,154.3c0.6,1.1,1.1,2.1,1.5,3.3c0.3,0.8,0.6,1.6,1,2.3c1,1.8,2.6,3.1,4.4,4.1c0.3,0.2,0.5-0.3,0.3-0.4
				c-1.7-1-3.4-2.2-4.3-4.1c-0.4-0.8-0.7-1.6-1-2.3c-0.4-1.1-0.9-2.1-1.4-3.1C224.3,153.7,223.9,154,224,154.3L224,154.3z"/>
		</g>
	</g>
	<g>
		<g>
			<path d="M230.9,164.3c1.3,0.8,2.6,1.7,4.2,1.9c1.7,0.2,3.4-0.5,5-1.1c3.4-1.4,6.9-3.3,9.5-5.9c0.2-0.2-0.1-0.6-0.4-0.4
				c-2.5,2.5-5.9,4.4-9.1,5.7c-1.5,0.6-3.2,1.3-4.9,1.2c-1.5-0.1-2.9-1-4.1-1.8C230.9,163.7,230.6,164.2,230.9,164.3L230.9,164.3z"
				/>
		</g>
	</g>
	<g>
		<g>
			<path d="M252,158.2c1.3,3.9,2,8,3.2,12c0.1,0.3,0.6,0.2,0.5-0.1c-1.2-4-1.9-8-3.2-12C252.4,157.8,251.9,157.9,252,158.2
				L252,158.2z"/>
		</g>
	</g>
	<g>
		<g>
			<path d="M255.6,170.6c1.3,2.4,2.5,5,2.4,7.9c0,0.3,0.5,0.3,0.5,0c0.2-2.9-1.1-5.6-2.4-8.1C255.9,170.1,255.5,170.4,255.6,170.6
				L255.6,170.6z"/>
		</g>
	</g>
	<g>
		<g>
			<path d="M258.4,179.8c0.4,1.6,0.7,3.1,0.8,4.7c0,0.3,0.5,0.3,0.5,0c-0.1-1.6-0.4-3.3-0.8-4.9
				C258.8,179.3,258.3,179.5,258.4,179.8L258.4,179.8z"/>
		</g>
	</g>
	<g>
		<g>
			<path d="M135.2,174.8c-0.1,0.5-0.2,0.9-0.3,1.4c-0.1,0.2-0.1,0.5-0.2,0.7c0,0.2-0.1,0.4,0,0.5c0.1,0.1,0.3,0.1,0.4-0.1
				c0,0,0-0.1,0-0.1c0-0.1,0.1-0.2,0.1-0.3c0.1-0.3-0.4-0.4-0.5-0.1c0,0.1-0.1,0.2-0.1,0.3c0,0,0,0,0,0.1c0,0,0-0.1,0,0
				c0,0,0.1-0.1,0.1-0.1c0,0,0.1,0,0.1,0c0,0,0,0,0,0c0.1,0,0.1,0,0.2,0.1c0,0,0.1,0.1,0.1,0.2c0,0,0,0,0,0c0,0,0,0.1,0,0
				c0,0,0,0,0,0c0-0.1,0-0.1,0-0.2c0-0.2,0.1-0.3,0.1-0.5c0.1-0.4,0.2-0.8,0.3-1.2c0-0.1,0.1-0.3,0.1-0.4c0-0.1,0-0.3-0.2-0.3
				C135.4,174.6,135.2,174.7,135.2,174.8L135.2,174.8z"/>
		</g>
	</g>
	<g>
		<g>
			<path d="M135,176.7c1.3,0.2,0.9,2.7,0.8,3.6c-0.2,2.2-0.8,4.5-1.3,6.7c-0.5,2-1.1,3.9-1.5,5.9c-0.6,2.7-0.5,5.4,0,8.1
				c0.7,4.1,2,8,1.9,12.2c0.2,0,0.3,0,0.5,0c0-1.8,0.1-3.6-0.3-5.4c-0.1-0.3-0.5-0.2-0.5,0.1c-0.3,4.7-0.1,9.4-0.5,14
				c-0.5,4.4-1.2,8.8-1.1,13.3c0.2,0,0.3,0,0.5-0.1c-0.1-0.4-0.3-0.8-0.5-1.2c-0.1-0.3-0.6,0-0.4,0.3c0.2,0.3,0.3,0.7,0.4,1
				c0.1,0.3,0.5,0.2,0.5-0.1c-0.1-4.5,0.7-8.9,1.1-13.3c0.5-4.7,0.2-9.4,0.5-14c-0.2,0-0.3,0-0.5,0.1c0.4,1.7,0.3,3.5,0.3,5.3
				c0,0.3,0.5,0.3,0.5,0c0.1-6.8-3.5-13.3-1.9-20.1c1-4.3,2.5-8.5,2.9-12.8c0.1-1.1,0.3-3.6-1.2-3.9
				C134.8,176.2,134.6,176.7,135,176.7L135,176.7z"/>
		</g>
	</g>
	<g>
		<g>
			<path d="M126,208c-0.4,1,0.1,2.3,0.4,3.3c0.5,1.7,1.1,3.4,1.7,5c0.6,1.5,1.2,3.1,1.6,4.6c0.2,0.9,0.3,1.9,0.5,2.9
				c0.2,1.4,0.3,2.8,0.5,4.2c0.4,3,0.7,6,1.4,8.9c0,0.1,0.2,0.2,0.3,0.2c1.2-0.5,2.3-1.3,3-2.5c0.1-0.1,0-0.2,0-0.3
				c-0.5-0.6-0.9-1.4-1.1-2.1c-0.4-1-0.7-2.1-0.9-3.1c-0.5-1.9-0.9-3.9-1-5.9c0-0.3-0.5-0.3-0.5,0c0.2,2.1,0.6,4.1,1.1,6.2
				c0.3,1.1,0.6,2.2,1,3.2c0.3,0.7,0.6,1.5,1.2,2c0-0.1,0-0.2,0-0.3c-0.6,1-1.6,1.8-2.7,2.3c0.1,0.1,0.2,0.1,0.3,0.2
				c-0.6-2.7-1-5.4-1.3-8.1c-0.3-2.4-0.5-4.9-0.9-7.3c-0.3-1.4-0.8-2.8-1.3-4.2c-0.6-1.7-1.2-3.3-1.8-5c-0.2-0.8-0.5-1.6-0.6-2.3
				c-0.1-0.5-0.2-1.2,0-1.7C126.6,207.8,126.1,207.7,126,208L126,208z"/>
		</g>
	</g>
	<g>
		<g>
			<path d="M130.8,218.4c0.4,3.6,0.4,7.5,2,10.9c0.1,0.3,0.6,0,0.4-0.3c-1.6-3.3-1.6-7.1-2-10.7
				C131.2,218.1,130.7,218.1,130.8,218.4L130.8,218.4z"/>
		</g>
	</g>
	<g>
		<g>
			<path d="M259.6,186.5c0,3.6-0.1,7.1-0.8,10.6c0.2,0,0.3,0,0.5,0.1c0.2-2,1.8-4,3-5.5c1.9-2.3,3.9-4.5,5.9-6.7
				c2.2-2.4,4.3-4.7,6.2-7.3c1.6-2.1,3.1-4.4,3.8-7c0.6-2.5,0.1-4.9-1.8-6.7c-0.2-0.2-0.6,0.1-0.4,0.4c4,3.9,0.7,9.4-2,13
				c-3.7,4.9-8.2,9.1-12.1,13.9c-1.4,1.7-3,3.7-3.2,6c0,0.3,0.4,0.3,0.5,0.1c0.7-3.5,0.8-7.1,0.8-10.8
				C260.1,186.2,259.6,186.2,259.6,186.5L259.6,186.5z"/>
		</g>
	</g>
	<g>
		<g>
			<path d="M278.5,162.3c-0.6,0.3-1.1,0.3-1.5,0.8c-0.2,0.2,0,0.5,0.2,0.4c2.5-0.5,4.3-3,5.6-5c1.8-2.7,3.2-5.6,5-8.3
				c0.8-1.3,1.7-2.6,3-3.5c0.3-0.2,0-0.6-0.3-0.4c-2.2,1.6-3.6,4.2-4.9,6.6c-1.6,2.7-3,5.6-5.1,7.9c-0.9,1-2,1.9-3.4,2.2
				c0.1,0.1,0.2,0.3,0.2,0.4c0.4-0.4,0.9-0.5,1.4-0.7C279,162.6,278.8,162.2,278.5,162.3L278.5,162.3z"/>
		</g>
	</g>
	<g>
		<g>
			<path d="M122.5,165.9c-0.7,0.4-1.1,0.2-1.4,1.2c-0.1,0.3,0.3,0.5,0.5,0.2c2.5-4.8,7-8.3,11.1-11.7c4.7-3.8,9.2-8,13.9-11.7
				c9.4-7.3,20.3-12.6,31.9-15.4c6.3-1.5,12.8-2.4,19.3-2.7c3.3-0.2,6.5-0.2,9.8,0.4c3,0.6,5.9,1.6,8.8,2.5c3.1,0.9,6.1,1.9,9.1,3
				c3.1,1.2,6.1,2.5,9.1,3.8c2.9,1.3,5.9,2.6,8.8,3.9c2.7,1.2,5.5,2.2,8.1,3.6c9.2,4.9,15.3,13.7,23.1,20.5c0.4,0.4,0.9,0.8,1.3,1.1
				c0.3,0.2,1.1,0.7,1.2,1c0.1-0.1,0.2-0.2,0.3-0.3c0.1,0.1-0.1-0.3-0.2-0.4c-0.1-0.1-0.1-0.2-0.2-0.3c-0.2-0.2-0.5,0.1-0.4,0.3
				c0,0,0,0,0,0c0.1,0.3,0.6,0,0.4-0.3c0,0,0,0,0,0c-0.1,0.1-0.3,0.2-0.4,0.3c0.2,0.2,0.3,0.6,0.6,0.8c0.2,0.1,0.3-0.1,0.3-0.3
				c-0.1-0.4-0.4-0.5-0.7-0.8c-0.6-0.4-1.1-0.9-1.6-1.3c-1-0.9-2-1.8-3-2.7c-1.9-1.8-3.7-3.8-5.6-5.7c-3.6-3.7-7.2-7.4-11.5-10.4
				c-2.2-1.5-4.5-2.7-6.9-3.7c-3.1-1.3-6.2-2.7-9.3-4c-5.9-2.7-11.9-5.3-18.1-7.4c-3-1-6.1-2-9.2-2.9c-2.9-0.9-5.9-1.5-8.9-1.5
				c-6.7-0.1-13.5,0.6-20.1,1.8c-11.7,2.2-22.8,6.9-32.6,13.6c-5.3,3.6-10.1,8-15,12.2c-4.1,3.5-8.7,6.7-12.1,11
				c-0.8,1-1.5,2.1-2,3.2c0.2,0.1,0.3,0.1,0.5,0.2c0.2-0.7,0.6-0.6,1.1-0.9C123,166.2,122.8,165.8,122.5,165.9L122.5,165.9z"/>
		</g>
	</g>
	<g>
		<g>
			<path d="M131.7,253.7c-2.4,1.3-5.1,1.9-7.6,0.6c-2.4-1.2-4.1-3.6-5.5-5.8c-1.8-2.8-3.4-5.7-4.8-8.7c-1.5-3.2-3-6.6-3.3-10.2
				c-0.1-1.8,0-3.5,0.3-5.3c0.4-1.8,1.1-3.5,1.5-5.3c0.8-3.1,0.5-6.2,0.6-9.4c0-1.5,0.1-3.1,0.5-4.5c0.2-0.8,0.5-1.6,1.2-2.1
				c1.1-0.8,2.5,0,3.4,0.6c1.6,1.2,3,2.7,4.3,4.2c1,1.2,2,2.5,3.2,3.5c0.2,0.2,0.6-0.1,0.4-0.4c-1.2-1-2.1-2.2-3.1-3.4
				c-1.3-1.4-2.6-2.9-4.1-4.1c-1-0.8-2.4-1.7-3.7-1.3c-1.7,0.5-2.1,2.7-2.4,4.1c-0.5,3.4,0,6.8-0.4,10.2c-0.2,1.9-0.9,3.7-1.5,5.5
				c-0.5,1.7-0.8,3.6-0.9,5.4c-0.1,3.7,1,7.1,2.5,10.5c1.4,3.3,3.1,6.6,5,9.7c1.6,2.6,3.5,5.5,6.3,7c2.7,1.4,5.6,0.8,8.2-0.5
				C132.2,254,132,253.6,131.7,253.7L131.7,253.7z"/>
		</g>
	</g>
	<g>
		<g>
			<path d="M118,210.3c-2.1,1.7-1.8,5.1-1.8,7.6c0,1.5-0.1,2.9-0.6,4.2c-0.6,1.6-1.6,3-2.3,4.5c-0.8,1.6-1.2,3.3-1,5.1
				c0,0.3,0.5,0.2,0.5-0.1c-0.5-3.4,1.9-6,3.1-8.9c1.1-2.6,0.6-5.2,0.8-7.9c0.1-1.5,0.4-3.1,1.6-4
				C118.7,210.4,118.3,210.1,118,210.3L118,210.3z"/>
		</g>
	</g>
	<g>
		<g>
			<path d="M113.6,231.5c-0.4,1.1,0.2,2.2,1,2.9c0.9,1,2,1.8,3.1,2.5c0.5,0.4,1.1,0.7,1.6,1.2c0.2,0.2,0.6-0.1,0.4-0.4
				c-1.1-1-2.5-1.7-3.7-2.7c-1-0.8-2.4-2-1.9-3.4C114.2,231.4,113.7,231.2,113.6,231.5L113.6,231.5z"/>
		</g>
	</g>
	<g>
		<g>
			<path d="M123.6,218.9c0.5,1.8,0.8,3.6,1.6,5.2c0.1,0.3,0.6,0,0.4-0.3c-0.8-1.6-1.1-3.4-1.6-5.1
				C124,218.4,123.5,218.6,123.6,218.9L123.6,218.9z"/>
		</g>
	</g>
	<path class="st5" d="M145,186.2c5-3.7,27.1-18.4,50.5-9.7v8.1c0,0-17-10.6-50.3,1.9C145,186.6,144.8,186.3,145,186.2z"/>
	<path class="st6" d="M221.3,184.5v-7.2c0,0,32.5-5.2,36.9,11.3C258.2,188.6,247.4,179.8,221.3,184.5z"/>
	<ellipse class="st6" cx="175.1" cy="202.5" rx="5.9" ry="4"/>
	<ellipse class="st6" cx="234.2" cy="202.4" rx="5.9" ry="4"/>
	<path class="st5" d="M157.6,205.3c0,0,13-21.9,35.6-3.4"/>
	<path class="st5" d="M219.4,202.7c0,0,10.6-19.7,29.6-2"/>
	<path class="st5" d="M273.3,125.4c0,0-1.8-8.1,4.9-7.2c6.7,0.9,7.3,6.1,7.3,6.1s-2.1,7.1-3,7.5S273.3,125.4,273.3,125.4z"/>
	<path class="st6" d="M145.2,186.5c0,0,20.9-20,50.3-10v8.1C195.5,184.6,180.2,173.5,145.2,186.5z"/>
	
		<linearGradient id="SVGID_00000160183079795738886030000016572081020904003247_" gradientUnits="userSpaceOnUse" x1="66.0562" y1="323.2876" x2="450.5639" y2="323.2876">
		<stop  offset="0" style="stop-color:#0A2328"/>
		<stop  offset="0.2437" style="stop-color:#122F35"/>
		<stop  offset="0.6855" style="stop-color:#1E4147"/>
		<stop  offset="1" style="stop-color:#22474E"/>
	</linearGradient>
	<path style="fill:url(#SVGID_00000160183079795738886030000016572081020904003247_);" d="M67.1,351c-3.1-6.2,1.2-13.8,8.1-14
		c0.2,0,0.3,0,0.5,0c6.4,0.1,7.7-9.6,18.4-8.5c0,0,0.3,1.2,3.7-4.1c0.7-1.1,2.3-1.8,3.2-3.7c0,0,10.4-4.6,15.4-7.9l3.7-8.6
		c0,0,9.3,0.2,18.5,20c0,0,10.2,13.3,19.6,15.5c7,1.6,12.6,6.2,17.2,7.5c1.5,0.4,3.2,1.3,4.4,0.5c0,0,30,0.2,45-18.4l2.7-9.7
		l1.5-7.5c0,0,5.1-1,10.8-8.3l5.5-10l6.9-19.2l5.2-23.2c0,0,0.6-2.5,5-3.3c2.1-0.4,4.9,0.2,9.1,0.6c0,0,17.4-9.2,25.9-6.2
		c0,0,4-3.5,7.9-4c3.2-0.4,6.2,2.2,7.3,1.7c0.4-0.2,1.3,0.2,2.4-0.7c1.2-0.9,2.5-3.2,4.2-4.4c2.4-1.8,4.7-2.9,7.8-4.8
		c6.5-4.1,13.9-8.3,18.5-7.2c5.2,1.2,6.4,0.1,6.4,0.1l4.6-2.3l4.5-6.1l4.5-0.6l4.6-0.6l4.4-2.4l2.5-5.8l5.2-9.7l1.8,11.2l2.9,9.2
		l3.5,1.7l4.7,4.6l10,3.1l10.7,0.5l8-2.5l6.3-4.9l4.9-5.3l2.3-8.2l-0.5-6.6l-6.8-15.4l-0.4-2.7l6.5-0.8l0,0c2.7,0.7,5.2,2.2,7.1,4.3
		l0.7,0.8l2.6,4.2l2.8,5.2l1.1,5.6l-0.9,5.4l-4.4,9.8l-4,6.3l-7.1,19.9l-4.5,4.2l-5.2,3.7l-4.7,9.1l-3.2,3.1l-6.1,2.1l-5.8-0.3
		l-5.2-1.6l-1.9-0.9l2.2,6.3l0.3,4.7l-1.7,4.8l-3.1,3.2l-4.4,2.2l-7.8,0.2l-7.3,1.5l-8.4,6l-9.4,1.8l-8.9,3.3l-11.1,7.8l-8.2,3.8
		l-5.3,3.9l-3.8,7.6l-1.5,13.1l-0.8,11.8l-1.1,13.5l-0.7,10.5l-0.5,14.2l-0.4,7.1l1.2,12.9l2.1,8.4l2.3,11l3.2,8.5l9.7,10.3h0
		c3.8,5.1,1.8,12.3-4.1,14.7c-8.5,3.4-21.3,7.9-37.2,10.9c-23.1,4.5-54,5-85.2-1.2c-42.5-8.5-88.8-34.2-126.5-87.4
		C75.6,368,71.5,359.8,67.1,351z"/>
	<g>
		<g>
			<path d="M406,141.4c-0.4,4.8,1.1,9.5,0.5,14.2c-0.6,4.3-2.4,8.3-4.8,11.9c-2.2,3.3-5,6.4-8.4,8.5c-2.8,1.7-6,2.6-9.3,2.7
				c-4.1,0.1-8.1-0.9-12-2c-0.3-0.1-0.4,0.4-0.1,0.5c6.7,2,14.1,3.3,20.6-0.1c3.5-1.8,6.3-4.6,8.6-7.7c2.6-3.5,4.7-7.5,5.6-11.8
				c0.6-2.6,0.6-5.2,0.3-7.9c-0.3-2.8-0.7-5.6-0.4-8.4C406.5,141.1,406,141.1,406,141.4L406,141.4z"/>
		</g>
	</g>
	<g>
		<g>
			<path d="M409.2,143.8c0,6,1.2,12.3-0.4,18.2c-0.7,2.6-2.2,5.1-4,7.2c-0.9,1-1.8,2-2.9,2.7c-0.9,0.7-1.9,1.2-3,1.7
				c-2.3,1.1-4.7,2.1-6.1,4.4c-0.2,0.3,0.3,0.5,0.4,0.3c1.3-2.1,3.6-3.1,5.8-4.1c1.1-0.5,2.2-1,3.1-1.7c1-0.7,1.9-1.6,2.8-2.6
				c1.7-2,3.2-4.2,4-6.7c1-2.8,1.2-5.8,1.1-8.8c0-3.5-0.4-7-0.4-10.5C409.7,143.5,409.2,143.5,409.2,143.8L409.2,143.8z"/>
		</g>
	</g>
	<g>
		<g>
			<path d="M289,106.1c1.1,0.4,1.6-0.8,1.9-1.7c0.5-1.5,0.6-3,1.8-4.1c1.6-1.4,3.8-1.8,5.9-1.8c2.2,0,4.4,0.4,6.5,1.1
				c2.4,0.8,4.6,2,6.6,3.6c0.2,0.2,0.4-0.1,0.3-0.3c-1.6-3.4-2.7-7.6-0.8-11.1c2.2-4.2,7.4-6.2,11.9-5.3c2.6,0.5,5,1.7,7.3,2.9
				c0.3,0.1,0.5-0.3,0.3-0.4c-2.2-1.1-4.5-2.2-6.9-2.8c-2.5-0.6-5.1-0.5-7.5,0.6c-2,0.9-4,2.3-5.2,4.2c-1,1.6-1.4,3.5-1.4,5.3
				c0.1,2.4,0.9,4.7,1.9,6.9c0.1-0.1,0.2-0.2,0.3-0.3c-3.5-2.6-7.5-4.3-11.9-4.6c-3.4-0.3-7.8,0.3-9.1,4c-0.3,0.8-0.4,1.6-0.7,2.3
				c-0.2,0.6-0.5,1.4-1.2,1.2C288.8,105.5,288.7,106,289,106.1L289,106.1z"/>
		</g>
	</g>
	<g>
		<g>
			<path d="M360.5,111.8c-0.2-1-0.1-2.1,0.5-2.9c0.2-0.3,0.5-0.5,0.8-0.6c0.3-0.1,0.6,0,0.9,0.2c0.5,0.3,0.8,0.9,1,1.4
				c0.1,0.3,0.6,0.2,0.5-0.1c-0.4-0.9-1.1-2.1-2.2-2c-1,0.1-1.6,1.1-1.8,2c-0.2,0.7-0.2,1.4-0.1,2.2
				C360,112.2,360.5,112.1,360.5,111.8L360.5,111.8z"/>
		</g>
	</g>
	<g>
		<g>
			<path d="M358,128c0.2,0.2,0.6,0.4,0.8,0.7c0.1-0.1,0.2-0.3,0.3-0.4c-0.9-0.4-1.8-1-2.2-1.9c-0.4-0.8-0.4-1.6-0.2-2.4
				c0.4-1.7,1.9-3.1,3.6-3.4c1.2-0.2,2.4,0.1,3.4,0.8c0.3,0.2,0.5-0.3,0.3-0.4c-1.9-1.2-4.3-1.2-6,0.3c-1.4,1.2-2.3,3.3-1.6,5.1
				c0.4,1.2,1.4,2,2.5,2.4c0.3,0.1,0.5-0.2,0.3-0.4c-0.2-0.3-0.5-0.4-0.8-0.7C358.2,127.4,357.8,127.8,358,128L358,128z"/>
		</g>
	</g>
	<g>
		<g>
			<path d="M351.2,79.5c-0.2,1.7,1.4,3.2,2.6,4.1c1.9,1.5,4,2.7,6.1,3.9c0.9,0.5,1.9,1,2.8,1.6c1.1,0.7,2.2,1.5,3.4,2.2
				c3.1,1.8,6.5,3.1,9.8,4.7c3,1.5,5.8,3.3,8.6,5.2c2.5,1.7,5,3.5,7.3,5.6c4.5,4,8.4,8.7,10.3,14.5c0.6,1.7,0.9,3.5,1.1,5.2
				c0.2,1.9,0.2,3.8,0.2,5.7c0.1,1.8,0.2,3.6,0.6,5.3c0.2,0.9,0.5,1.7,0.8,2.5c0.1,0.3,0.5,1.4,1,1.4c0.2,0,0.3-0.2,0.2-0.4
				c-0.1-0.1-0.3-0.3-0.3-0.5c0-0.3-0.5-0.3-0.5,0c0,0.3,0.3,0.5,0.4,0.8c0.1-0.1,0.1-0.3,0.2-0.4c0.1,0-0.2-0.3-0.2-0.4
				c-0.1-0.2-0.2-0.4-0.3-0.5c-0.2-0.4-0.4-0.8-0.5-1.2c-0.3-0.8-0.4-1.5-0.6-2.3c-0.3-1.7-0.4-3.3-0.4-5c-0.1-3.2-0.2-6.3-1.1-9.4
				c-1.6-5.6-5-10.4-9.2-14.3c-2.1-2-4.4-3.8-6.8-5.5c-2.5-1.8-5.1-3.6-7.7-5.1c-3-1.8-6.3-3-9.4-4.5c-1.6-0.8-3.2-1.6-4.7-2.6
				c-0.9-0.6-1.8-1.2-2.7-1.8c-2.3-1.3-4.6-2.5-6.7-4c-1-0.7-2-1.5-2.8-2.4c-0.6-0.7-1.1-1.5-1-2.4
				C351.7,79.2,351.2,79.2,351.2,79.5L351.2,79.5z"/>
		</g>
	</g>
	
		<linearGradient id="SVGID_00000021831958190423279860000012457075467450173583_" gradientUnits="userSpaceOnUse" x1="271.3099" y1="149.3807" x2="437.4426" y2="149.3807">
		<stop  offset="0" style="stop-color:#EEC691"/>
		<stop  offset="1" style="stop-color:#9E5B3D"/>
	</linearGradient>
	<path style="fill:url(#SVGID_00000021831958190423279860000012457075467450173583_);" d="M420.1,160.9c3.3,2.4,8,17.2,8,17.2
		l4.3,10.1l4.4,10.3l0.6,7.1l-2.4,7.4l-2,2.2l-2.9,3.1l-6.3,4.9l-4.8,1.4l-3.2,1l-10.5-0.4l-4-1.1l-6.2-2l-4.7-4.6l-3.5-1.7
		l-0.8-1.8l-2.1-7.4l-1.8-17.5l-7.7-7.4l-5.3-6l-5.8-7.5l-10.2-3l-11-3.4l-11.1-2.8l-10.4-2.4l-21.6-8.7l-11.5-7.3l-11.2-8.7l-3.3-4
		c-1.8-2.2-2.3-5.2-1.3-7.9l0.3-0.8c0.6-1.7,2.2-2.8,4-2.8h0.6c5.8,0,11.5,1.7,16.3,4.9l4.5,2.9l-0.7-7.8l-4.7-6.1l-5-3.5l3.3-1.8
		l3.5-5.9l9.4-0.4l6.6,2.7l1.6,0.3l-1.3-5l1-5.4l5.7-4.8l5.4-0.8l6,1.6l3.6,1.6l-1.2-8.9l2.2-5.3l7-1.8l6.8,2.4l4.7,5.6l6.2,4.8
		l7.6,4.6l7,3.6l9,4.7l8.1,5.7l6,5.4l4.9,6.7l2.8,7.7v6.7l3.2,10.4"/>
	<g>
		<g>
			<path d="M310.1,101.3c6.8,4.3,12.1,10.2,18.1,15.5c2.9,2.5,5.8,4.9,8.6,7.5c1.4,1.3,2.8,2.7,4,4.2c1,1.2,2,2.4,2.6,3.9
				c0.9,2.3,0.9,5-0.4,7.1c-1.4,2.4-4,3.5-6.7,3.7c-2.9,0.1-5.7-1.4-8.2-2.8c-2.7-1.6-5.3-3.6-7.9-5.5c-2.9-2.1-6-4.1-9.1-6
				c-3.5-2.1-7.1-4.1-10.8-5.9c-0.9-0.5-1.9-0.9-2.8-1.3c-0.3-0.1-0.5,0.3-0.3,0.4c7.6,3.4,14.9,7.6,21.6,12.5
				c2.6,1.9,5.2,3.9,7.9,5.6c2.5,1.6,5.3,3.2,8.3,3.5c2.6,0.3,5.5-0.6,7.3-2.5c1.6-1.7,2.3-4.2,2-6.6c-0.4-3.1-2.4-5.4-4.4-7.7
				c-2.7-2.9-5.8-5.5-8.8-8.1c-3.1-2.6-6-5.4-8.9-8.1c-3-2.8-6-5.6-9.4-8c-0.8-0.6-1.7-1.2-2.6-1.7
				C310.1,100.7,309.8,101.1,310.1,101.3L310.1,101.3z"/>
		</g>
	</g>
	<g>
		<g>
			<path d="M354.9,130.4c2.9,1.5,6.9,2.7,9.7,0.2c1.4-1.3,2.4-3.4,2.4-5.3c0-1.7-1-3.1-2.2-4.3c-1.5-1.5-3.2-2.7-4.8-4.1
				c-2.1-1.8-4.2-3.7-6.2-5.6c-4.1-3.8-8.1-7.6-12.2-11.4c-1.1-1-2.2-2.1-3.2-3.2c-1-1.1-2-2.3-2.9-3.5c-0.9-1.1-1.9-2.1-3-3
				c-1.1-0.9-2.2-1.8-3.2-2.9c-0.2-0.2-0.6,0.1-0.4,0.4c1.6,1.8,3.6,3,5.2,4.8c1.7,1.9,3.1,3.9,4.9,5.7c1.8,1.9,3.8,3.6,5.6,5.3
				c1.9,1.8,3.8,3.6,5.7,5.4c3.7,3.5,7.4,7,11.4,10.2c1.4,1.1,2.9,2.2,3.9,3.7c1.1,1.7,0.9,3.5,0.1,5.3c-0.9,2-2.5,3.4-4.8,3.5
				c-2,0.1-4-0.7-5.8-1.6C354.9,129.8,354.6,130.3,354.9,130.4L354.9,130.4z"/>
		</g>
	</g>
	<g>
		<g>
			<path d="M354.3,129.6c-2.7-2-4.9-4.7-7.4-7c-2.6-2.4-5.6-4.3-8.6-6.2c-3-2-5.9-4.1-9-5.8c-1.5-0.9-3.1-1.7-4.6-2.6
				c-1.3-0.8-2.5-1.6-3.8-2.4c-1.5-0.8-3-1.5-4.4-2.3c-1.3-0.7-2.7-1.4-3.8-2.4c-0.2-0.2-0.6,0.1-0.4,0.4c2,1.8,4.7,2.9,7,4.1
				c1.3,0.7,2.5,1.4,3.7,2.2c1.5,1,3.1,1.9,4.7,2.8c1.5,0.8,3,1.7,4.5,2.6c1.6,1,3.1,2.1,4.6,3.1c3.1,2,6.3,3.9,9,6.3
				c2.8,2.5,5.1,5.4,8.1,7.6C354.4,130.2,354.6,129.8,354.3,129.6L354.3,129.6z"/>
		</g>
	</g>
	<g>
		<g>
			<path d="M332.1,89c-1.3-5-3.1-13.9,3.9-15.4c2-0.4,4.1-0.3,6.1,0.1c1.8,0.4,3.4,1.1,4.8,2.2c2.9,2.2,4.6,5.5,6.1,8.8
				c0.9,2,1.7,3.9,2.8,5.7c1.2,1.9,2.5,3.8,3.8,5.7c2.4,3.5,4.8,7.3,5.3,11.5c0.2,1.5,0.2,3.1-0.2,4.5c-0.4,1.3-1.3,2.8-2.8,2.6
				c-1.3-0.2-2.5-1.7-3.3-2.6c-1.2-1.3-2.2-2.8-3.3-4.2c-1-1.3-2.2-2.5-3.4-3.7c-1.7-1.8-3.4-3.5-5.2-5.2c-3.5-3.4-7.3-6.7-11.5-9.3
				c-1-0.6-2-1.2-3.1-1.7c-0.3-0.1-0.5,0.3-0.3,0.4c4.8,2.3,8.9,5.7,12.8,9.3c1.9,1.8,3.8,3.6,5.6,5.5c1.4,1.4,2.9,2.8,4.2,4.4
				c1.1,1.4,2.2,2.9,3.3,4.3c1,1.2,2.1,2.5,3.5,3.1c1.2,0.5,2.5,0,3.2-1c0.9-1.2,1.1-2.9,1.2-4.4c0.2-9.1-7.8-15.5-11.2-23.2
				c-1.6-3.5-3-7.1-5.8-9.9c-2.8-2.7-6.5-3.8-10.4-3.7c-1.7,0-3.4,0.4-4.8,1.4c-1.1,0.8-1.9,2-2.3,3.2c-1,3-0.5,6.4,0.1,9.3
				c0.2,0.8,0.4,1.5,0.6,2.3C331.7,89.5,332.1,89.3,332.1,89L332.1,89z"/>
		</g>
	</g>
	<g>
		<g>
			<path d="M298,124.4c-2.8-2.6-6-4.8-9.3-6.7c-3.5-1.9-7.7-3.9-11.8-3.4c-3.7,0.5-6.3,3.7-6.4,7.4c-0.1,4,2.9,7.6,5.6,10.2
				c3.4,3.3,7.2,5.9,11,8.6c1.5,1.1,3,2.1,4.4,3.3c2.4,2.1,5.2,3.4,8.2,4.5c1.5,0.6,3.1,1.1,4.6,1.7c1.7,0.7,3.4,1.5,5,2.3
				c3.1,1.5,6.1,2.9,9.4,3.9c1.8,0.5,3.6,0.9,5.4,1.3c1.9,0.4,3.7,0.9,5.6,1.3c3.5,0.8,7.1,1.3,10.5,2.5c3.3,1.1,6.5,2.4,9.9,3.4
				c2.9,0.8,6,0.9,8.9,1.6c1.6,0.4,3.1,1.1,4.4,2.1c1.1,0.9,2,2,2.8,3.2c1.7,2.4,3.1,5.1,5.1,7.4c3.2,3.8,8.8,5.9,10.2,10.9
				c0.9,3,0.2,6.4-1.5,9c-0.7,1-1.5,2-2.1,3c-0.6,1.1-1,2.2-1.4,3.4c-0.8,2.3-1.9,4.6-3.8,6.2c-0.9,0.8-2,1.3-3.2,1.6
				c-1.4,0.3-2.7,0.2-4.1,0.2c-1.9,0-3.8,0.1-5.3,1.5c-1.4,1.3-2.2,3-3.4,4.4c-0.9,1.1-2,2.2-3.3,2.8c-1.4,0.6-2.9,0.8-4.4,0.8
				c-2.9,0-5.7-0.5-8.5-0.1c-2.9,0.4-5.5,1.6-7.9,3.1c-2.5,1.6-4.7,3.4-7.3,4.9c-2.7,1.6-5.6,2.8-7.7,5.2c-0.9,1.1-1.8,2.2-2.9,3.1
				c-1.2,0.9-2.4,0.8-3.7,0.3c-2.6-0.8-5.1-2.4-7.9-1.5c-1,0.3-1.7,1-2.4,1.7c-0.9,0.9-1.9,1.9-3.1,2.4c-1.1,0.5-2.1,0.5-3.2,0.1
				c-1.1-0.4-2.2-0.8-3.4-0.9c-3.2-0.3-5.8,1.3-8.6,2.6c-1.7,0.8-3.4,1.4-5.2,2c-1.6,0.6-3.2,1.2-4.8,1.9c-1.1,0.5-2.2,0.9-3.5,0.8
				c-1.3-0.1-2.6-0.5-3.9-0.8c-1.2-0.2-2.4-0.4-3.5-0.2c-1.3,0.2-2.2,1-3,2c-0.2,0.3,0.2,0.5,0.4,0.3c2-2.8,5.4-1.7,8.2-1.1
				c0.9,0.2,1.8,0.4,2.8,0.3c1.3-0.2,2.5-0.8,3.8-1.4c3.2-1.4,6.7-2.3,9.8-4c1.4-0.7,2.7-1.4,4.2-1.8c1.5-0.4,3.2-0.4,4.7,0
				c1,0.3,1.9,0.8,2.9,0.9c1.1,0.2,2.2-0.2,3.1-0.8c2-1.3,3.3-3.6,5.8-3.9c2.9-0.3,5.2,1.7,7.9,2c2.6,0.3,4.2-2.3,5.8-4
				c2.2-2.5,5.2-3.6,7.9-5.3c2.5-1.5,4.8-3.4,7.2-4.9c2.6-1.6,5.4-2.7,8.4-3c2.8-0.3,5.7,0.4,8.5,0.2c1.3-0.1,2.6-0.3,3.7-0.9
				c1.2-0.6,2.2-1.6,3.1-2.7c1.2-1.4,2.1-3.2,3.4-4.5c1.6-1.6,4-1.5,6.1-1.4c2.3,0.1,4.6-0.3,6.4-1.8c1.8-1.4,3-3.5,3.8-5.6
				c0.5-1.2,0.8-2.6,1.4-3.8c0.5-1,1.1-1.8,1.7-2.7c1.8-2.5,2.8-5.4,2.5-8.5c-0.3-2.4-1.4-4.5-3.1-6.2c-1.7-1.7-3.8-3.1-5.6-4.7
				c-2.2-2-3.8-4.4-5.4-6.9c-1.5-2.3-3-4.7-5.3-6.2c-2.5-1.7-5.7-2.1-8.6-2.5c-1.5-0.2-3-0.5-4.4-0.9c-1.6-0.5-3.3-1.1-4.9-1.6
				c-3.2-1.2-6.5-2.3-9.9-3c-3.7-0.7-7.3-1.6-11-2.4c-1.8-0.4-3.6-0.8-5.3-1.3c-1.8-0.5-3.5-1.2-5.1-1.9c-3.1-1.4-6.1-3-9.3-4.3
				c-3-1.2-6.2-2.2-9.1-3.7c-2.1-1.1-3.8-2.7-5.7-4.1c-1.7-1.3-3.4-2.4-5.1-3.7c-3.8-2.7-7.7-5.6-10.7-9.4c-1.2-1.6-2.3-3.3-2.7-5.3
				c-0.4-1.9,0-3.9,1-5.5c2.2-3.7,6.6-3.6,10.3-2.4c4.2,1.3,8,3.6,11.5,6.2c1.3,1,2.6,2,3.7,3.1C297.9,125,298.2,124.7,298,124.4
				L298,124.4z"/>
		</g>
	</g>
	<polygon class="st3" points="369.8,176.5 376.4,178.1 385.2,178.9 393,176.5 397.9,172.6 402.9,166 405.4,160.9 406.8,154.2 
		406.2,145 406.2,142.5 405.4,140.6 406.8,138.7 409,137.3 412.2,137.5 413.4,141.4 415.1,145 416.8,149.3 417.7,154.6 417.7,161.6 
		416.2,167.2 414.2,173.5 413.8,176.5 412.2,179.1 408.4,182.3 405,185.7 400.7,189.6 397,191.2 390.7,192.1 383.4,192.1 
		382.2,191.9 380.3,187 377.9,184.5 375.1,182.3 371.6,178.9 	"/>
	<g>
		<g>
			<path d="M414.1,176.5c0.1-3,1.2-5.8,2.1-8.5c1-2.8,1.9-5.6,1.9-8.6c0-0.3-0.5-0.3-0.5,0c0,6-3.8,11.2-4,17.2
				C413.6,176.8,414.1,176.8,414.1,176.5L414.1,176.5z"/>
		</g>
	</g>
	<path class="st9" d="M195.4,229.2c0,0,15.8,14.5,21.7,2.4"/>
	<path class="st5" d="M334.7,143.4c0,0-10.4-15.1,9.2-10.4"/>
	<ellipse class="st10" cx="234.2" cy="202.7" rx="2.2" ry="1.5"/>
	<ellipse class="st10" cx="175.4" cy="203" rx="2.2" ry="1.5"/>
	<path d="M186.9,262.8c5.9,0.3,28.4,1.4,40,1.7c0.8,0,1.6,0.3,1.2,0.4c-2.1,0.8-7.2,2.7-10.3,2.6c-3.9-0.1-14.1-1.6-20.3-0.7
		c-0.3,0-0.7,0-1.1,0c-1.2-0.2-4.1-1-10.2-3.7C185.8,262.9,186.2,262.8,186.9,262.8z"/>
	<path class="st11" d="M163.1,293.6c-0.5-1.2,43,25.7,65.2,18.6"/>
	<ellipse class="st12" cx="234.2" cy="202.7" rx="1.3" ry="0.9"/>
	<ellipse class="st12" cx="175.4" cy="203" rx="1.3" ry="0.9"/>
</g>
</svg>
