<?xml version="1.0" encoding="utf-8"?>
<!-- Generator: Adobe Illustrator 27.0.0, SVG Export Plug-In . SVG Version: 6.00 Build 0)  -->
<svg version="1.1" id="Layer_1" xmlns="http://www.w3.org/2000/svg" xmlns:xlink="http://www.w3.org/1999/xlink" x="0px" y="0px"
	 viewBox="0 0 383.9 382.6" style="enable-background:new 0 0 383.9 382.6;" xml:space="preserve">
<style type="text/css">
	.st0{fill:#333333;}
</style>
<g>
	<path class="st0" d="M175.7,339.9c-0.5-0.9-1.5-0.8-2.2-1.1c-6.2-2.8-9.7-7.4-10.1-14.3c-0.1-1,0-1.9,0-2.9
		c0-56.9,0.2-113.7-0.1-170.6c-0.1-11.8,8.3-18.4,18.3-18.4c46.1,0.3,92.3,0.3,138.4,0c9.7-0.1,18,6.6,18,18.1
		c-0.2,56.4-0.2,112.8,0,169.1c0,9.1-1.7,16.2-13,20C275.1,339.9,225.4,339.9,175.7,339.9z M329,236.6c0-28.7,0-57.4,0-86.2
		c0-6.4-2.6-9-8.9-9c-46.3,0-92.6,0-139,0c-6.5,0-9,2.5-9,9.2c0,57.2,0,114.3,0,171.5c0,6.6,2.5,9.1,9.1,9.1c46.2,0,92.4,0,138.7,0
		c6.8,0,9.2-2.4,9.2-9.3C329,293.5,329,265,329,236.6z"/>
	<path class="st0" d="M58.4,339.9c-0.5-0.9-1.5-0.8-2.2-1.1c-6.2-2.8-10-7.4-10-14.3c-0.2-15.1-0.2-30.2,0-45.2
		c0.1-8.2,6.6-14.8,14.9-15.3c4.2-0.2,8.5-0.1,12.8-0.1c2.9,0.1,4.7,2,4.6,4.5c-0.1,2.5-1.8,4.1-4.6,4.1c-3.7,0.1-7.3,0-11,0
		c-5,0.1-7.9,2.9-7.9,7.9c0,14.2,0,28.4,0,42.6c0,5.2,2.9,8,8.1,8c21.7,0,43.3,0,65,0c5.4,0,8.3-2.8,8.3-8.2c0-14.1,0-28.2,0-42.3
		c0-5.1-2.9-8-8.1-8c-10.9,0-21.8,0-32.8,0c-2.5,0-4.4-0.7-5-3.3c-0.7-2.8,1.1-5.3,4.2-5.3c12-0.1,24-0.3,36,0.1
		c8.4,0.3,14.5,7.4,14.5,15.9c0.1,14.5,0,29,0,43.5c0,8.3-4.8,14.1-13.1,15.9c-0.1,0-0.2,0.3-0.3,0.4
		C107.2,339.9,82.8,339.9,58.4,339.9z"/>
	<path class="st0" d="M144.9,187.7c0,12.7,0,25.3,0,38c0,10.1-6.5,16.9-16.5,16.9c-21.9,0.1-43.9,0.1-65.8,0
		c-10-0.1-16.4-6.7-16.4-16.7c-0.1-12.2,0-24.4,0-36.5c0-3.8,1.4-5.6,4.2-5.7c3,0,4.5,1.9,4.5,5.8c0,11.8,0,23.6,0,35.4
		c0,6.6,2.4,9,9.1,9c21,0,42,0,62.9,0c6.9,0,9.3-2.4,9.3-9.2c0-24.8,0-49.5,0-74.3c0-6.5-2.6-9-9.2-9c-21.1,0-42.2,0-63.2,0
		c-6.4,0-9,2.5-9,8.9c0,5.5,0.1,11,0,16.5c-0.1,3.6-2.5,5.8-5.5,4.9c-2.1-0.6-3.2-2.1-3.2-4.3c0-6.6-0.1-13.2,0.1-19.7
		c0.3-8.2,7-14.9,15.2-15c22.7-0.2,45.4-0.1,68.2,0c8.5,0.1,15.3,7.1,15.4,15.7C145,161.6,144.9,174.6,144.9,187.7z"/>
	<path class="st0" d="M192.2,104.8c46.2,0,92.4,0,138.6,0c1,0,1.9-0.1,2.9,0c2.2,0.2,3.6,1.4,3.9,3.6c0.3,2.3-0.7,4-2.9,4.7
		c-1.1,0.3-2.3,0.3-3.4,0.3c-92.9,0-185.8,0-278.7,0c-1.1,0-2.2,0.1-3.2-0.2c-2.2-0.6-3.4-2.2-3.2-4.6c0.2-2.3,1.6-3.7,3.9-3.9
		c1-0.1,1.9,0,2.9,0C99.4,104.8,145.8,104.8,192.2,104.8z"/>
	<path class="st0" d="M46.1,59.5c0-3.9,0-7.7,0-11.6c0-3.2,1.6-5.1,4.2-5.2c2.7-0.1,4.5,1.9,4.5,5.3c0,7.1,0,14.1,0,21.2
		c0,4.6,2.8,7.6,7.1,7.7c4.6,0.1,7.7-3,7.8-7.7c0-7.1,0-14.1,0-21.2c0-3.1,1.5-4.9,3.9-5.2c2.4-0.3,4.7,1.4,4.7,4
		c0.1,8.8,0.7,17.6-0.3,26.4c-1,9.2-13.1,15.1-22.2,11.1c-6.2-2.7-9.9-7.2-9.8-14.3C46.1,66.5,46.1,63,46.1,59.5z"/>
	<path class="st0" d="M140.8,59.3c0-3.8,0-7.5,0-11.3c0-3.3,1.7-5.3,4.4-5.3c2.6,0.1,4.3,2,4.3,5.2c0,7.2,0,14.3,0,21.5
		c0,4.4,3.1,7.5,7.3,7.5c4.5,0,7.6-3.1,7.7-7.6c0-7,0-13.9,0-20.9c0-3.6,1.6-5.6,4.3-5.6c2.8,0,4.4,2,4.4,5.7c0,7.2,0.1,14.3,0,21.5
		c-0.1,8.9-7.2,15.7-16.3,15.7c-8.4,0-16.6-6.8-16.1-15.8C141,66.3,140.8,62.8,140.8,59.3z"/>
	<path class="st0" d="M195.5,70.6c-2.7,3.8-5.2,7.3-7.7,10.8c-0.5,0.7-1,1.4-1.5,2.1c-1.8,2.2-4.1,2.7-6.1,1.3
		c-2.1-1.4-2.5-4-0.9-6.4c3.1-4.5,6.2-9.1,9.5-13.5c1.1-1.5,1.2-2.5,0.1-4c-2.4-3.2-4.7-6.6-7-9.9c-2.3-3.3-2.3-6,0.1-7.6
		c2.4-1.6,4.7-0.8,7.1,2.7c2.1,3,4.2,5.9,6.5,9.2c2.5-3.5,4.7-6.7,7-9.9c2-2.8,4.4-3.4,6.6-1.9c2.2,1.6,2.5,4.1,0.5,6.9
		c-2.4,3.5-4.8,7-7.4,10.4c-1.2,1.6-1.3,2.6-0.1,4.2c3.1,4.2,6,8.5,9,12.8c2,2.9,1.8,5.5-0.5,7c-2.3,1.5-4.5,0.8-6.6-2.1
		c-1.4-2-2.8-4-4.2-5.9C198.6,74.9,197.2,72.9,195.5,70.6z"/>
	<path class="st0" d="M95.5,306.2c-6.2,0-12.4,0-18.5,0c-3.1,0-5.1-1.7-5.1-4.3c0-2.6,1.9-4.4,5-4.4c12.5,0,24.9,0,37.4,0
		c3.1,0,5.1,1.9,5,4.4c-0.1,2.6-2,4.2-5.2,4.2C107.9,306.3,101.7,306.2,95.5,306.2z"/>
	<path class="st0" d="M131,47.3c-0.1,0.5-0.3,1.2-0.6,1.9c-4.7,11.1-9.3,22.2-14,33.2c-1.2,2.9-4,4-6.3,2.5c-2-1.3-2.8-3.1-1.9-5.5
		c4.8-11.3,9.5-22.7,14.4-34c0.9-2.1,2.7-3.1,4.9-2.6C129.6,43.3,130.8,44.8,131,47.3z"/>
	<path class="st0" d="M88,64.2c0-5.4,0-10.8,0-16.2c0-3.3,1.7-5.3,4.4-5.2c2.6,0.1,4.3,2,4.3,5.2c0,10.8,0,21.6,0,32.4
		c0,3.3-1.9,5.3-4.5,5.3c-2.6-0.1-4.2-2-4.2-5.2C88,75,88,69.6,88,64.2z"/>
	<path class="st0" d="M318.1,76.7c4.7,0,9.5,0,14.2,0c3.5,0,5.3,1.5,5.3,4.3c0,2.8-1.8,4.4-5.3,4.4c-9.5,0-19,0-28.4,0
		c-3.3,0-5.3-1.8-5.3-4.5c0.1-2.6,2-4.2,5.2-4.2C308.6,76.7,313.4,76.7,318.1,76.7z"/>
	<path class="st0" d="M318.2,68.5c-4.7,0-9.5,0-14.2,0c-3.3,0-5.3-1.8-5.2-4.5c0.1-2.6,2-4.2,5.2-4.2c9.6,0,19.1,0,28.7,0
		c3.2,0,5,1.7,5,4.3c0,2.7-1.7,4.3-5,4.3C327.9,68.5,323,68.5,318.2,68.5z"/>
	<path class="st0" d="M318.1,51.5c-4.8,0-9.6,0-14.5,0c-2.9,0-4.8-1.7-4.9-4.1c-0.1-2.6,1.8-4.5,4.9-4.5c9.7-0.1,19.5-0.1,29.2,0
		c3.1,0,4.9,1.8,4.9,4.5c-0.1,2.6-1.8,4.1-4.8,4.2C327.9,51.6,323,51.5,318.1,51.5z"/>
	<path class="st0" d="M107.1,168.8c-3.8,0-7.5,0.1-11.3,0c-2.9-0.1-4.8-1.8-4.8-4.3c0-2.4,1.9-4.3,4.8-4.4c7.6-0.1,15.2-0.1,22.9,0
		c2.9,0,4.7,1.8,4.8,4.3c0,2.5-1.8,4.3-4.7,4.3C114.9,168.9,111,168.8,107.1,168.8z"/>
	<path class="st0" d="M107.2,215.2c-3.8,0-7.5,0-11.3,0c-2.9,0-4.8-1.8-4.9-4.2c-0.1-2.5,2-4.4,5-4.5c7.5-0.1,15-0.1,22.6,0
		c2.9,0,4.8,1.8,4.8,4.3c0.1,2.6-1.8,4.4-4.9,4.4C114.7,215.3,111,215.2,107.2,215.2z"/>
	<path class="st0" d="M107.3,192c-3.8,0-7.5,0-11.3,0c-2.9,0-4.8-1.7-4.9-4.2c-0.1-2.5,1.9-4.5,5-4.5c7.5-0.1,15-0.1,22.6,0
		c3.1,0,5,1.9,4.9,4.5c-0.1,2.5-1.9,4.1-4.9,4.1C114.8,192,111,192,107.3,192z"/>
	<path class="st0" d="M72.9,192c-3.5,0-5.3-1.4-5.3-4.2c-0.1-2.9,2-4.6,5.7-4.5c3.3,0,5.3,1.7,5.4,4.3C78.8,190.4,76.7,192,72.9,192
		z"/>
	<path class="st0" d="M73,215.2c-3.6,0-5.5-1.6-5.4-4.4c0.1-2.8,2.1-4.3,5.6-4.3c3.5,0,5.6,1.7,5.5,4.5
		C78.7,213.7,76.6,215.2,73,215.2z"/>
	<path class="st0" d="M73,168.8c-3.6,0-5.5-1.6-5.4-4.5c0.1-2.8,2.1-4.3,5.7-4.2c3.4,0,5.5,1.8,5.4,4.5
		C78.6,167.4,76.6,168.9,73,168.8z"/>
	<path class="st0" d="M248.6,164.4c26.3,0.1,45.8,18.6,47.6,43.2c1.7,23-15.8,44.3-39.2,47.7c-22.6,3.2-44.1-10.6-50.4-32.5
		c-0.4-1.4-0.8-2.8-0.1-4.2c0.7-1.6,2.1-2.6,3.9-2.6c2,0,3.5,1,4.2,3c0.8,2.5,1.6,5,2.7,7.3c7.5,15.4,24.6,23.7,41,20.1
		c16.7-3.7,28.9-18.4,29.3-35.4c0.4-18.4-13.1-34.4-31.5-37.4c-17.8-2.9-35.6,8.4-40.9,25.8c-0.2,0.6-0.3,1.1-0.5,1.7
		c-1,2.6-3,3.8-5.4,3.1c-2.3-0.6-3.5-2.8-2.9-5.5c1.9-7.8,5.7-14.5,11.3-20.2C226.8,169.1,237.9,164.5,248.6,164.4z"/>
	<path class="st0" d="M250.5,309.8c-12.6,0-25.1,0.1-37.7,0c-9.3-0.1-17.1-6.8-18-15.6c-1.1-9.7,4.8-18.1,14.3-20.2
		c1.2-0.3,2.5-0.3,3.7-0.3c25.1,0,50.2,0,75.4,0c9.3,0,17.1,6.8,18,15.6c1.1,9.7-4.8,18.1-14.3,20.2c-1.6,0.3-3.3,0.4-4.9,0.4
		C274.9,309.8,262.7,309.8,250.5,309.8z M250.6,282.4c-12.4,0-24.7,0-37.1,0c-5.9,0-10,3.7-10.1,9.2c-0.1,5.6,4,9.5,10.1,9.5
		c24.6,0,49.3,0,73.9,0c6.1,0,10.2-3.8,10.2-9.3c0-5.6-4.1-9.3-10.2-9.3C275.1,282.4,262.9,282.4,250.6,282.4z"/>
</g>
</svg>
