<?xml version="1.0" encoding="utf-8"?>
<!-- Generator: Adobe Illustrator 27.0.0, SVG Export Plug-In . SVG Version: 6.00 Build 0)  -->
<svg version="1.1" id="Layer_1" xmlns="http://www.w3.org/2000/svg" xmlns:xlink="http://www.w3.org/1999/xlink" x="0px" y="0px"
	 viewBox="0 0 383.9 382.6" style="enable-background:new 0 0 383.9 382.6;" xml:space="preserve">
<style type="text/css">
	.st0{fill:#333333;}
</style>
<g>
	<path class="st0" d="M12.1,160.3c1.8-2.2,3.7-4.2,7-3c3.3,1.2,3.5,3.9,3.5,6.9c0,27.6,0,55.1-0.1,82.7c0,2.3,0.3,3.2,3,3.2
		c67.8-0.1,135.5-0.1,203.3-0.1c0.7,0,1.4,0,2,0c0.6-1.2-0.4-1.6-0.8-2.2c-5.7-8.3-7.7-17.7-8.6-27.5c-0.6-7-0.4-14.1,0-21.1
		c0.3-5.8,4.3-9.7,10.1-10.2c8.2-0.7,16.4-0.5,24.5,0.4c1.4,0.2,2.2,0.1,2.2-1.6c-0.1-5.5,0-10.9,0-16.5c-2.1,0.4-3.4,1.6-5.2,1.7
		c-5.7,0.5-10.3-3.5-10.4-9.3c-0.1-4.8-0.1-9.6,0-14.4c0-1.8-0.4-2.9-2.1-3.9c-6.1-3.7-9-9.3-9-16.4c-0.1-7.5-0.1-15,0-22.5
		c0-2.4-0.4-3.2-3-3.2c-67.6,0.1-135.3,0.1-202.9,0c-2.3,0-2.9,0.6-2.9,2.9c0.1,9.6,0,19.2,0.1,28.8c0,2.9,0.1,5.7-3,7.3
		c-3.2,1.6-5.4-0.4-7.5-2.4c0-13.1,0-26.3,0-39.4c2.9-6,7.7-7.8,14.2-7.8c67,0.2,133.9,0.1,200.9,0.2c3.7,0,4.3-1.1,4.2-4.4
		c-0.2-10.6-0.1-21.1-0.1-31.7c0-11.9,7.7-19.7,19.5-19.7c33.8,0,67.7,0,101.5,0c11.8,0,19.4,7.8,19.4,19.7c0,23.8,0,47.6,0,71.4
		c0,12.1-7.7,19.8-19.7,19.8c-22.5,0-44.9,0.1-67.4-0.1c-4,0-6.6,1.5-9.5,4.1c-5.3,4.7-7.2,10-6.6,17c0.6,6.6,0.2,13.4,0.1,20
		c0,2,0.4,3.1,2.5,3.9c12.4,4.6,19.9,13.5,22.6,26.5c0.2,0.9,0.3,1.8,1.1,2.4c9.7,7,17.2,16.5,25.8,24.7c3.2,3,3.8,7.1,1.9,11
		c-1.1,2.3-0.3,3.3,1.1,4.7c11.6,11.6,23.2,23.2,34.8,34.8c5.7,5.7,5.6,9.9,0,15.6c-4.8,4.8-9.6,9.7-14.4,14.4
		c-4.6,4.5-9.3,4.5-13.8,0c-4.4-4.3-8.6-8.6-12.9-12.9c-2.7-2.7-2.9-5.8-0.6-8.1c2.3-2.3,5.2-2.1,8,0.6c3.7,3.6,7.3,7.3,10.9,10.9
		c1,1,1.6,1.4,2.8,0.2c4.3-4.3,8.6-8.6,13.1-13c-12.2-12.1-24.1-24-36-36c-1.3-1.3-2-1-3.1,0.1c-3.7,3.8-7.4,7.5-11.2,11.2
		c-1.2,1.1-1.4,1.9-0.1,3c1.9,1.7,3.7,3.6,5.5,5.5c2.2,2.5,2.1,5.4-0.1,7.5c-2,1.9-5,1.9-7.3-0.1c-0.8-0.7-1.5-1.4-2.3-2.2
		c-2.5-2.7-4.5-5.4-9.2-3.1c-3.2,1.6-6.9-0.3-9.5-3c-3.1-3.2-6.2-6.4-9.6-9.8c-2.3,7-7.1,8.9-13.7,8.9c-19.5-0.2-39.1-0.1-58.6-0.1
		c-0.7,1.1,0.2,1.8,0.5,2.6c6.4,14.3,13,28.5,19.4,42.8c0.8,1.8,1.7,2.6,3.8,2.6c7.5-0.1,15-0.1,22.5-0.1c4.3,0,6.8,2,6.8,5.3
		c0,3.2-2.5,5.2-6.6,5.2c-68.4,0-136.7,0-205.1,0c-4.1,0-6.5-2-6.5-5.2c0-3.2,2.4-5.3,6.5-5.3c7.7,0,15.5,0,23.2,0
		c1.4,0,2.4-0.1,3-1.6c6.7-15,13.6-30,20.4-45c0.1-0.3,0-0.7,0.1-1.3c-6,0-12,0-17.9,0c-13.5,0-26.9-0.2-40.4,0.1
		c-6.6,0.2-11.3-1.8-14.1-7.8C12.1,239.6,12.1,200,12.1,160.3z M253,160.7c5.2-5.6,10.1-10.5,14.5-15.7c4.6-5.5,10.2-7.6,17.3-7.5
		c22.2,0.2,44.5,0.1,66.7,0.1c6.9,0,9.7-2.9,9.7-9.9c0-23.4,0-46.9,0-70.3c0-6.7-2.9-9.7-9.5-9.7c-33.3,0-66.7,0-100,0
		c-6.9,0-9.7,2.9-9.7,9.9c0,23.4,0,46.9,0,70.3c0,4.2,1.3,7.2,5.1,9.2c4.2,2.3,6.1,6,6.1,10.7C253,151.8,253,155.8,253,160.7z
		 M140.3,276.5c38,0,76.1,0,114.1,0c0.8,0,1.6,0,2.5,0c0.8,0,1.2-0.3,1.3-1.2c0.9-6.1-1.8-14-9.5-14.5c-1.4-0.1-2.8-0.2-4.2-0.2
		c-69.9,0-139.7,0-209.6,0c-4,0-9.3-1.4-11.5,0.7c-2.5,2.3-0.4,7.7-0.8,11.8c-0.3,3.1,0.8,3.5,3.6,3.5
		C64.3,276.4,102.3,276.5,140.3,276.5z M74.9,334.9c7.2,0,14-0.1,20.7,0.1c2.1,0.1,3-0.8,3.8-2.6c4-8.5,8.2-16.8,12.1-25.3
		c2.6-5.8,6.9-8.5,13.2-8.5c10.4,0.1,20.8,0.1,31.2,0c6.5-0.1,10.8,2.7,13.5,8.6c3.9,8.5,8,16.9,12.1,25.3c0.5,1.1,0.7,2.5,2.5,2.4
		c7.2-0.1,14.4,0,22,0c-7.1-15.7-14.1-31-21-46.3c-0.9-2-2.3-1.6-3.7-1.6c-27.3,0-54.5,0-81.8-0.1c-2.4,0-3.4,0.9-4.3,2.9
		c-5.1,11.4-10.3,22.8-15.5,34.1C78.2,327.5,76.7,331,74.9,334.9z M244.6,199.6c-3.6,0-7.3,0-10.9,0c-1.4,0-1.8,0.5-1.8,1.8
		c-0.4,9.4-0.5,18.8,1.6,28c2.6,11.2,8.5,19.4,20.5,21.8c1.6,0.3,2.8,0.1,4-1.1c8-8.2,16.2-16.3,24.3-24.4c1.1-1.1,1.5-2,1.1-3.7
		c-1.9-9.7-7.6-16.1-16.9-19.4C259.5,200,252.1,199.6,244.6,199.6z M170.9,334.8c-3.7-7.8-7.4-15.3-10.9-22.9
		c-0.9-2-2.1-2.7-4.3-2.7c-8.9,0.1-17.8,0.4-26.6-0.1c-5.1-0.3-8,1.1-9.9,6.2c-2.5,6.6-6,12.8-9.2,19.5
		C130.5,334.8,150.5,334.8,170.9,334.8z M291.1,232c-0.6,0.6-1.1,1-1.6,1.5c-7.9,8-15.8,15.9-23.9,23.8c-1.4,1.4-1.1,2.1,0.1,3.3
		c6.2,6.2,12.5,12.4,18.6,18.7c1.3,1.3,2,1.4,3.3,0c7.9-8,15.8-16,23.8-23.9c1.4-1.4,1.1-2.1-0.1-3.3c-6.3-6.2-12.4-12.4-18.6-18.6
		C292.3,233,291.8,232.5,291.1,232z"/>
	<path class="st0" d="M140.2,224.8c-23.8-0.6-44.3-8.7-60.4-26.7c-5.4-6-5.5-11.6-0.2-17.5c15.8-17.7,35.7-26.3,59.2-26.7
		c24.6-0.4,45.5,8.1,62.1,26.5c5.4,6,5.3,11.7,0,17.8C186.1,215.2,163.7,225,140.2,224.8z M140.4,214.3c15.4,0,25.9-10,26-24.9
		c0.1-14.8-10.4-24.9-25.9-24.9c-15.7,0-25.9,9.8-25.9,24.8C114.6,204.2,124.9,214.2,140.4,214.3z M108.2,171.7
		c-8.4,4.4-14.9,9.4-20.5,15.7c-1.5,1.7-1.1,2.7,0.2,4.1c5.2,5.8,11.2,10.5,18.1,14.3c0.5,0.3,1,0.6,1.7,0
		C102.6,194.7,102.7,183.7,108.2,171.7z M172.7,206.8c8.8-4.4,15.5-9.8,21.3-16.5c0.7-0.8,0.4-1.5-0.2-2.2
		c-5.8-6.6-12.5-12.1-20.7-16.1C178.2,188.8,178.2,193.7,172.7,206.8z"/>
	<path class="st0" d="M145.7,135.3c0,0.8,0,1.6,0,2.4c-0.2,3.1-2.2,5.1-5,5.1c-2.9,0.1-5.1-1.8-5.4-4.8c-0.2-1.8-0.2-3.7,0-5.6
		c0.2-3.2,2.5-5.3,5.4-5.2c2.9,0.1,4.9,2.3,5.1,5.6C145.7,133.7,145.7,134.5,145.7,135.3C145.7,135.3,145.7,135.3,145.7,135.3z"/>
	<path class="st0" d="M102.1,149.2c-3.3,0-7.3-4-7.2-7.3c0-2.8,2.3-5.2,5-5.2c3-0.1,7.4,4.2,7.5,7.3
		C107.5,146.8,105.1,149.2,102.1,149.2z"/>
	<path class="st0" d="M181,136.6c2.8,0.1,5.3,2.8,5.1,5.6c-0.2,3.1-4.6,7.1-7.7,7c-2.9-0.1-5-2.4-4.9-5.3
		C173.7,140.7,178,136.5,181,136.6z"/>
	<path class="st0" d="M301.7,97.8c-10.5,0-21.1,0-31.6,0c-4.4,0-6.5-1.7-6.6-5.1c-0.1-3.5,2.2-5.5,6.6-5.5c21.1,0,42.1,0,63.2,0
		c4.4,0,6.8,2.4,6.4,6c-0.4,3-2.3,4.5-6.1,4.5C323,97.8,312.3,97.8,301.7,97.8z"/>
	<path class="st0" d="M301.5,73.9c-10.5,0-21.1,0-31.6,0c-4.2,0-6.4-1.9-6.4-5.2c0-3.3,2.3-5.3,6.5-5.3c21.1,0,42.1,0,63.2,0
		c4.1,0,6.5,1.9,6.6,5.2c0.1,3.5-2.2,5.4-6.7,5.4C322.6,73.9,312,73.9,301.5,73.9z"/>
	<path class="st0" d="M284.6,121.8c-5,0-10.1,0-15.1,0c-3.8,0-5.9-1.8-6-4.9c-0.2-3.3,2-5.6,5.8-5.6c10.3-0.1,20.6-0.1,30.9,0
		c3.6,0,5.7,2.2,5.7,5.3c0,3.1-2.1,5.1-5.8,5.1C294.9,121.9,289.7,121.8,284.6,121.8z"/>
</g>
</svg>
